<svg xmlns="http://www.w3.org/2000/svg" width="27.333" height="24.13" viewBox="0 0 27.333 24.13">
  <path id="Path_4453" data-name="Path 4453" d="M20.073,30a6.471,6.471,0,0,0-4.042,1.4,9.207,9.207,0,0,0-2.365,2.844A9.206,9.206,0,0,0,11.3,31.4,6.471,6.471,0,0,0,7.26,30C3.121,30,0,33.386,0,37.875c0,4.85,3.894,8.169,9.789,13.192,1,.853,2.136,1.82,3.315,2.851a.854.854,0,0,0,1.124,0c1.179-1.032,2.314-2,3.316-2.852,5.894-5.023,9.788-8.342,9.788-13.192C27.333,33.386,24.212,30,20.073,30Z" transform="translate(0 -30)" fill="#dedede"/>
</svg>
