<svg xmlns="http://www.w3.org/2000/svg" width="218.395" height="188.545" viewBox="0 0 218.395 188.545">
  <g id="briefcase" transform="translate(-0.6 -5.2)">
    <circle id="Ellipse_669" data-name="Ellipse 669" cx="3.145" cy="3.145" r="3.145" transform="translate(162.037 16.532)" fill="none" stroke="#f16723" stroke-linecap="round" stroke-linejoin="round" stroke-width="1"/>
    <circle id="Ellipse_670" data-name="Ellipse 670" cx="1.048" cy="1.048" r="1.048" transform="translate(130.938 20.726)" fill="#231f20"/>
    <circle id="Ellipse_671" data-name="Ellipse 671" cx="1.048" cy="1.048" r="1.048" transform="translate(0.6 147.22)" fill="#231f20"/>
    <circle id="Ellipse_672" data-name="Ellipse 672" cx="1.048" cy="1.048" r="1.048" transform="translate(216.898 118.916)" fill="#231f20"/>
    <circle id="Ellipse_673" data-name="Ellipse 673" cx="1.048" cy="1.048" r="1.048" transform="translate(190.691 12.689)" fill="#231f20"/>
    <circle id="Ellipse_674" data-name="Ellipse 674" cx="3.844" cy="3.844" r="3.844" transform="translate(45.327 34.004)" fill="none" stroke="#fbd108" stroke-linecap="round" stroke-linejoin="round" stroke-width="1"/>
    <path id="Path_4703" data-name="Path 4703" d="M19.3,9.194h6.639m-3.145,3.145V5.7" transform="translate(46.644 0)" fill="none" stroke="#f16723" stroke-linecap="round" stroke-linejoin="round" stroke-width="1"/>
    <circle id="Ellipse_675" data-name="Ellipse 675" cx="1.398" cy="1.398" r="1.398" transform="translate(21.216 35.052)" fill="#231f20"/>
    <circle id="Ellipse_676" data-name="Ellipse 676" cx="1.398" cy="1.398" r="1.398" transform="translate(180.208 58.115)" fill="#231f20"/>
    <path id="Path_4704" data-name="Path 4704" d="M4,21.845h6.639M7.494,24.99V18.7" transform="translate(8.481 32.426)" fill="none" stroke="#4d9ad4" stroke-linecap="round" stroke-linejoin="round" stroke-width="1"/>
    <path id="Path_4705" data-name="Path 4705" d="M53.5,18.945h6.639m-3.494,3.494V15.8" transform="translate(131.949 25.193)" fill="none" stroke="#fbd108" stroke-linecap="round" stroke-linejoin="round" stroke-width="1"/>
    <g id="Group_3144" data-name="Group 3144" transform="translate(12.481 34.353)">
      <path id="Path_4706" data-name="Path 4706" d="M63.774,28.576H73.908a29.348,29.348,0,0,1,29,25.159h17.821A39.818,39.818,0,0,0,80.9,13.9H57.135A39.818,39.818,0,0,0,17.3,53.735H35.121A29.031,29.031,0,0,1,63.774,28.576Z" transform="translate(29.174 -13.9)" fill="#fafdff"/>
      <path id="Path_4707" data-name="Path 4707" d="M58.037,28.576H68.171a29.251,29.251,0,0,1,28.3,21.665h18.52L111.85,38.36c-3.494-13.278-21.665-24.111-34.943-24.111l-33.2-.349A24.236,24.236,0,0,0,19.6,38.36V50.94H29.734a29.181,29.181,0,0,1,28.3-22.364Z" transform="translate(34.911 -13.9)" fill="#4d9ad4"/>
      <path id="Path_4708" data-name="Path 4708" d="M63.774,28.576H73.908a29.348,29.348,0,0,1,29,25.159h17.821A39.818,39.818,0,0,0,80.9,13.9H57.135A39.818,39.818,0,0,0,17.3,53.735H35.121A29.031,29.031,0,0,1,63.774,28.576Z" transform="translate(29.174 -13.9)" fill="none" stroke="#231f20" stroke-linecap="round" stroke-linejoin="round" stroke-width="1.5"/>
      <path id="Path_4709" data-name="Path 4709" d="M67.778,146.352H54.5V24.4H67.778a5.89,5.89,0,0,1,5.94,5.94V140.411A6.123,6.123,0,0,1,67.778,146.352Z" transform="translate(121.963 12.29)" fill="#3768a4"/>
      <path id="Path_4710" data-name="Path 4710" d="M22.27,146.352H10.739A6.635,6.635,0,0,1,4.1,139.712V31.039A6.635,6.635,0,0,1,10.739,24.4H22.27Z" transform="translate(-3.751 12.29)" fill="#fafdff"/>
      <path id="Path_4711" data-name="Path 4711" d="M182.863,146.352H6.749A.342.342,0,0,1,6.4,146V24.749a.342.342,0,0,1,.349-.349H182.863a.342.342,0,0,1,.349.349V146A.342.342,0,0,1,182.863,146.352Z" transform="translate(1.986 12.29)" fill="#4d9ad4"/>
      <path id="Path_4712" data-name="Path 4712" d="M117.915,75.417,192.344,24.4M85.767,75.417,11.687,24.4M193.741,146.352H9.94A6.123,6.123,0,0,1,4,140.411V30.34A6.123,6.123,0,0,1,9.94,24.4h183.8a6.123,6.123,0,0,1,5.94,5.94V140.411A6.123,6.123,0,0,1,193.741,146.352Z" transform="translate(-4 12.29)" fill="none" stroke="#231f20" stroke-linecap="round" stroke-linejoin="round" stroke-width="1.5"/>
      <path id="Path_4713" data-name="Path 4713" d="M42.975,75.434A15.511,15.511,0,0,1,27.6,60.059V50.275a15.375,15.375,0,1,1,30.75,0v9.784A15.073,15.073,0,0,1,42.975,75.434Z" transform="translate(54.866 38.481)" fill="#3768a4"/>
      <path id="Path_4714" data-name="Path 4714" d="M42.276,75.434A14.765,14.765,0,0,1,27.6,60.758V49.576A14.765,14.765,0,0,1,42.276,34.9a.752.752,0,0,1,.7.7V74.735A.752.752,0,0,1,42.276,75.434Z" transform="translate(54.866 38.481)" fill="#fafdff"/>
      <path id="Path_4715" data-name="Path 4715" d="M35.94,75.185A5.89,5.89,0,0,1,30,69.244V40.94a5.94,5.94,0,1,1,11.881,0v28.3c.349,3.494-2.446,5.94-5.94,5.94Z" transform="translate(60.852 38.73)" fill="#4d9ad4"/>
      <path id="Path_4716" data-name="Path 4716" d="M42.975,75.434A15.511,15.511,0,0,1,27.6,60.059V50.275a15.375,15.375,0,1,1,30.75,0v9.784A15.073,15.073,0,0,1,42.975,75.434Z" transform="translate(54.866 38.481)" fill="none" stroke="#231f20" stroke-linecap="round" stroke-linejoin="round" stroke-width="1.5"/>
      <path id="Path_4717" data-name="Path 4717" d="M8.2,109.716v15.375M19.731,27.6A11.634,11.634,0,0,0,8.2,39.131m0,5.94v2.8" transform="translate(6.476 20.272)" fill="none" stroke="#fff" stroke-linecap="round" stroke-width="1.5"/>
    </g>
  </g>
</svg>
