<svg id="workspace" xmlns="http://www.w3.org/2000/svg" width="130" height="130" viewBox="0 0 130 130">
  <path id="Path_4420" data-name="Path 4420" d="M126.191,0H49.512A3.809,3.809,0,0,0,45.7,3.809V9.855a19.082,19.082,0,0,0-9.658-1.123L30.66,3.346A11.427,11.427,0,0,0,12.666,17.108L.835,31.9A3.809,3.809,0,0,0,.4,35.969L12.9,61.191H3.809A3.809,3.809,0,0,0,0,65V80.234a3.809,3.809,0,0,0,3.809,3.809H7.617v42.148A3.809,3.809,0,0,0,11.426,130h45.7a3.809,3.809,0,0,0,3.809-3.809V84.043h53.828v42.148a3.809,3.809,0,0,0,7.617,0V84.043h3.809A3.809,3.809,0,0,0,130,80.234V65a3.809,3.809,0,0,0-3.809-3.809H99.277V53.574h26.914A3.809,3.809,0,0,0,130,49.766V3.809A3.809,3.809,0,0,0,126.191,0ZM43.668,17.269,28.425,32.513A11.435,11.435,0,0,1,43.668,17.269ZM19.888,8.733a3.813,3.813,0,0,1,5.386,0l2.962,2.962a19.272,19.272,0,0,0-5.386,5.386l-2.962-2.962a3.807,3.807,0,0,1,0-5.386ZM8.3,34.761l9.537-11.921,2.051,2.051A18.967,18.967,0,0,0,25.274,41.05a3.809,3.809,0,0,0,5.386,0L45.7,26.007V49.766a3.809,3.809,0,0,0,3.809,3.809H76.426v7.617H21.406Zm6.935,87.622V106.895H30.469V110.7a3.809,3.809,0,0,0,7.617,0v-3.809H53.32v15.488ZM53.32,99.277H15.234V84.043H30.469v3.809a3.809,3.809,0,0,0,7.617,0V84.043H53.32Zm69.062-22.852H7.617V68.809H122.383ZM84.043,61.191V53.574H91.66v7.617Zm38.34-15.234H53.32V7.617h69.063Z" fill="#6d2ef1"/>
</svg>
