<svg xmlns="http://www.w3.org/2000/svg" width="96.291" height="78.232" viewBox="0 0 96.291 78.232">
  <path id="diamond" d="M9.97,206.183l29.29,31.264-14.1-31.264Zm38.175,36.295,16.408-36.295H31.737ZM25.3,200.165l9.591-18.053H22.57L9.03,200.165H25.3Zm31.735,37.282,29.29-31.264H71.135ZM32.113,200.165H64.177l-9.591-18.053H41.7Zm38.881,0H87.261l-13.54-18.053H61.4Zm6.629-22.849,18.053,24.071a2.992,2.992,0,0,1-.188,3.855L50.355,253.385a3.066,3.066,0,0,1-4.419,0L.8,205.243a2.992,2.992,0,0,1-.188-3.855l18.053-24.071a2.745,2.745,0,0,1,2.4-1.222h54.16a2.745,2.745,0,0,1,2.4,1.222Z" transform="translate(0 -176.094)" fill="#e4eaef"/>
</svg>
