<svg xmlns="http://www.w3.org/2000/svg" width="40" height="40" viewBox="0 0 40 40">
  <g id="Group_3335" data-name="Group 3335" transform="translate(-340 -2040)">
    <g id="Ellipse_684" data-name="Ellipse 684" transform="translate(340 2040)" fill="#fff" stroke="#707070" stroke-width="1" opacity="0.43">
      <circle cx="20" cy="20" r="20" stroke="none"/>
      <circle cx="20" cy="20" r="19.5" fill="none"/>
    </g>
    <path id="_8665767_pen_icon" data-name="8665767_pen_icon" d="M15.327,2.274,13.482.429a1.475,1.475,0,0,0-2.085,0L9.662,2.165l3.9,3.929L15.3,4.358A1.447,1.447,0,0,0,15.327,2.274Zm-6.356.585L1,10.83a.491.491,0,0,0-.134.251L.057,15.123a.491.491,0,0,0,.576.58l4.042-.808a.491.491,0,0,0,.251-.134L12.9,6.789Z" transform="translate(353.099 2052.145)" fill="#6d2ef1"/>
  </g>
</svg>
