<svg xmlns="http://www.w3.org/2000/svg" width="355" height="309" viewBox="0 0 355 309">
  <g id="Group_2851" data-name="Group 2851" transform="translate(-771 -366)">
    <path id="job_vacancy" data-name="job vacancy" d="M140.457,112.2a10.42,10.42,0,1,1-10.42-10.42A10.42,10.42,0,0,1,140.457,112.2Zm149.56,165.19a5.21,5.21,0,0,1-7.367,0L257.4,252.14A67.567,67.567,0,0,1,147.558,216.4H20.26A15.27,15.27,0,0,1,5,201.135V59.729a15.27,15.27,0,0,1,15.26-15.26h68.1V23.26A15.27,15.27,0,0,1,103.618,8h52.839a15.27,15.27,0,0,1,15.26,15.26V44.469h68.1a15.27,15.27,0,0,1,15.26,15.26v87.766a67.447,67.447,0,0,1,9.7,97.279l25.247,25.247A5.21,5.21,0,0,1,290.017,277.387ZM98.778,44.469H161.3V23.26a4.845,4.845,0,0,0-4.84-4.84H103.618a4.845,4.845,0,0,0-4.84,4.84ZM15.42,59.729V98.683c17.109,9.013,119.374,57.689,229.235-.094V59.729a4.845,4.845,0,0,0-4.84-4.84H20.26a4.845,4.845,0,0,0-4.84,4.84ZM145.932,205.975c-.135-1.724-.266-3.449-.266-5.21H31.049a5.21,5.21,0,0,1-5.21-5.21v-15.63a5.21,5.21,0,0,1,5.21-5.21H150.876a67.583,67.583,0,0,1,93.778-33.979V110.358a248.246,248.246,0,0,1-112.012,26.5A277.431,277.431,0,0,1,15.42,110.343v90.792a4.845,4.845,0,0,0,4.84,4.84Zm1.625-20.839H36.259v5.21H146.552C146.828,188.585,147.151,186.85,147.558,185.136ZM270.7,200.765A57.309,57.309,0,1,0,213.4,258.074,57.309,57.309,0,0,0,270.7,200.765ZM213.4,153.877a5.21,5.21,0,1,0,0,10.42,36.516,36.516,0,0,1,36.469,36.469,5.21,5.21,0,0,0,10.42,0A46.941,46.941,0,0,0,213.4,153.877ZM25.84,91.358a5.21,5.21,0,0,0,5.21-5.21V70.519H57.1a5.21,5.21,0,1,0,0-10.42H25.84a5.21,5.21,0,0,0-5.21,5.21v20.84A5.21,5.21,0,0,0,25.84,91.358ZM202.975,70.519h26.049v15.63a5.21,5.21,0,1,0,10.42,0V65.309a5.21,5.21,0,0,0-5.21-5.21H202.975a5.21,5.21,0,0,0,0,10.42Zm-98.988,0h52.1a5.21,5.21,0,0,0,0-10.42h-52.1a5.21,5.21,0,1,0,0,10.42Z" transform="translate(817 396.088)"/>
    <circle id="Ellipse_631" data-name="Ellipse 631" cx="6.5" cy="6.5" r="6.5" transform="translate(771 431)" fill="#6d2ef1" opacity="0.5"/>
    <circle id="Ellipse_634" data-name="Ellipse 634" cx="6.5" cy="6.5" r="6.5" transform="translate(1106 492)" fill="#6d2ef1" opacity="0.5"/>
    <circle id="Ellipse_633" data-name="Ellipse 633" cx="3.5" cy="3.5" r="3.5" transform="translate(787 517)" fill="#6d2ef1" opacity="0.5"/>
    <circle id="Ellipse_632" data-name="Ellipse 632" cx="3.5" cy="3.5" r="3.5" transform="translate(1119 421)" fill="#6d2ef1" opacity="0.5"/>
    <text id="_" data-name="+" transform="translate(847 392)" fill="#6d2ef1" font-size="25" font-family="Poppins-Bold, Poppins" font-weight="700" opacity="0.5"><tspan x="0" y="0">+</tspan></text>
  </g>
</svg>
