<svg version="1.2" xmlns="http://www.w3.org/2000/svg" viewBox="0 0 172 113" width="172" height="113"><defs><clipPath clipPathUnits="userSpaceOnUse" id="cp1"><path d="m-379-423h965v3333h-965z"/></clipPath></defs><style>.a{fill:#fff}</style><g clip-path="url(#cp1)"><g style="opacity:.6"><path class="a" d="m3 111.9c-0.3 0.6-1 0.8-1.6 0.5-0.6-0.3-0.8-1.1-0.5-1.7 0.3-0.6 1.1-0.8 1.7-0.5 0.6 0.4 0.8 1.1 0.4 1.7z"/><path class="a" d="m10.3 109.8c-0.6-0.3-0.9-1.1-0.5-1.7 0.3-0.6 1.1-0.8 1.7-0.4 0.5 0.3 0.8 1 0.4 1.6-0.3 0.6-1.1 0.9-1.6 0.5z"/><path class="a" d="m6.2 106.2c-0.3 0.6-1.1 0.8-1.6 0.5-0.6-0.4-0.8-1.1-0.5-1.7 0.3-0.6 1.1-0.8 1.7-0.5 0.6 0.3 0.8 1.1 0.4 1.7z"/><path class="a" d="m20.8 106.7c-0.3 0.6-1.1 0.9-1.7 0.5-0.6-0.3-0.8-1-0.4-1.6 0.3-0.6 1-0.9 1.6-0.5 0.6 0.3 0.8 1 0.5 1.6z"/><path class="a" d="m15.1 103.6c-0.3 0.6-1.1 0.8-1.7 0.5-0.6-0.4-0.8-1.1-0.4-1.7 0.3-0.6 1-0.8 1.6-0.5 0.6 0.3 0.8 1.1 0.5 1.7z"/><path class="a" d="m9.4 100.4c-0.3 0.6-1.1 0.8-1.7 0.5-0.6-0.3-0.8-1.1-0.4-1.7 0.3-0.6 1-0.8 1.6-0.4 0.6 0.3 0.8 1 0.5 1.6z"/><path class="a" d="m28 104.6c-0.6-0.3-0.8-1-0.5-1.6 0.4-0.6 1.1-0.8 1.7-0.5 0.6 0.3 0.8 1.1 0.5 1.7-0.3 0.6-1.1 0.8-1.7 0.4z"/><path class="a" d="m24 101c-0.3 0.6-1.1 0.8-1.7 0.5-0.6-0.3-0.8-1.1-0.5-1.7 0.4-0.6 1.1-0.8 1.7-0.5 0.6 0.4 0.8 1.1 0.5 1.7z"/><path class="a" d="m16.6 98.3c-0.6-0.3-0.8-1-0.5-1.6 0.4-0.6 1.1-0.9 1.7-0.5 0.6 0.3 0.8 1 0.5 1.6-0.3 0.6-1.1 0.9-1.7 0.5z"/><path class="a" d="m12.6 94.7c-0.3 0.6-1.1 0.8-1.7 0.5-0.6-0.4-0.8-1.1-0.4-1.7 0.3-0.6 1-0.8 1.6-0.5 0.6 0.3 0.8 1.1 0.5 1.7z"/><path class="a" d="m38.6 101.6c-0.4 0.6-1.1 0.8-1.7 0.5-0.6-0.4-0.8-1.1-0.5-1.7 0.4-0.6 1.1-0.8 1.7-0.5 0.6 0.3 0.8 1.1 0.5 1.7z"/><path class="a" d="m32.9 98.4c-0.4 0.6-1.1 0.8-1.7 0.5-0.6-0.3-0.8-1.1-0.5-1.7 0.4-0.6 1.1-0.8 1.7-0.5 0.6 0.4 0.8 1.1 0.5 1.7z"/><path class="a" d="m27.2 95.3c-0.4 0.6-1.1 0.8-1.7 0.4-0.6-0.3-0.8-1-0.5-1.6 0.4-0.6 1.1-0.8 1.7-0.5 0.6 0.3 0.8 1.1 0.5 1.7z"/><path class="a" d="m21.5 92.1c-0.4 0.6-1.1 0.8-1.7 0.5-0.6-0.3-0.8-1.1-0.5-1.7 0.4-0.6 1.1-0.8 1.7-0.5 0.6 0.4 0.8 1.1 0.5 1.7z"/><path class="a" d="m15.8 88.9c-0.3 0.6-1.1 0.9-1.7 0.5-0.6-0.3-0.8-1.1-0.5-1.6 0.4-0.6 1.1-0.9 1.7-0.5 0.6 0.3 0.8 1 0.5 1.6z"/><path class="a" d="m47.5 99c-0.4 0.6-1.1 0.8-1.7 0.5-0.6-0.4-0.8-1.1-0.5-1.7 0.3-0.6 1.1-0.8 1.7-0.5 0.6 0.3 0.8 1.1 0.5 1.7z"/><path class="a" d="m41.8 95.8c-0.4 0.6-1.1 0.8-1.7 0.5-0.6-0.3-0.8-1.1-0.5-1.7 0.3-0.6 1.1-0.8 1.7-0.5 0.6 0.4 0.8 1.1 0.5 1.7z"/><path class="a" d="m36.1 92.7c-0.4 0.6-1.1 0.8-1.7 0.5-0.6-0.4-0.8-1.1-0.5-1.7 0.3-0.6 1.1-0.8 1.7-0.5 0.6 0.3 0.8 1.1 0.5 1.7z"/><path class="a" d="m30.4 89.5c-0.4 0.6-1.1 0.8-1.7 0.5-0.6-0.3-0.8-1.1-0.5-1.7 0.3-0.6 1.1-0.8 1.7-0.5 0.6 0.4 0.8 1.1 0.5 1.7z"/><path class="a" d="m24.7 86.4c-0.4 0.6-1.1 0.8-1.7 0.4-0.6-0.3-0.8-1-0.5-1.6 0.3-0.6 1.1-0.9 1.7-0.5 0.6 0.3 0.8 1.1 0.5 1.7z"/><path class="a" d="m19 83.2c-0.4 0.6-1.1 0.8-1.7 0.5-0.6-0.3-0.8-1.1-0.5-1.7 0.4-0.6 1.1-0.8 1.7-0.5 0.6 0.3 0.8 1.1 0.5 1.7z"/><path class="a" d="m56.3 96.4c-0.3 0.6-1 0.8-1.6 0.5-0.6-0.3-0.8-1.1-0.5-1.7 0.3-0.6 1.1-0.8 1.7-0.5 0.6 0.3 0.8 1.1 0.4 1.7z"/><path class="a" d="m50.6 93.2c-0.3 0.6-1 0.9-1.6 0.5-0.6-0.3-0.8-1.1-0.5-1.6 0.3-0.6 1.1-0.9 1.7-0.5 0.6 0.3 0.8 1 0.4 1.6z"/><path class="a" d="m44.9 90.1c-0.3 0.6-1 0.8-1.6 0.5-0.6-0.4-0.8-1.1-0.5-1.7 0.3-0.6 1.1-0.8 1.7-0.5 0.6 0.3 0.8 1.1 0.4 1.7z"/><path class="a" d="m39.2 86.9c-0.3 0.6-1 0.8-1.6 0.5-0.6-0.3-0.8-1.1-0.5-1.7 0.3-0.6 1.1-0.8 1.7-0.5 0.6 0.4 0.8 1.1 0.4 1.7z"/><path class="a" d="m33.5 83.8c-0.3 0.6-1 0.8-1.6 0.5-0.6-0.4-0.8-1.1-0.5-1.7 0.3-0.6 1.1-0.8 1.7-0.5 0.6 0.3 0.8 1.1 0.4 1.7z"/><path class="a" d="m27.8 80.6c-0.3 0.6-1 0.8-1.6 0.5-0.6-0.3-0.8-1.1-0.5-1.7 0.3-0.6 1.1-0.8 1.7-0.5 0.6 0.4 0.8 1.1 0.4 1.7z"/><path class="a" d="m22.2 77.5c-0.4 0.6-1.1 0.8-1.7 0.4-0.6-0.3-0.8-1-0.5-1.6 0.3-0.6 1.1-0.9 1.7-0.5 0.6 0.3 0.8 1.1 0.5 1.7z"/><path class="a" d="m65.2 93.8c-0.3 0.6-1.1 0.8-1.7 0.5-0.6-0.3-0.8-1.1-0.4-1.7 0.3-0.6 1-0.8 1.6-0.5 0.6 0.4 0.8 1.1 0.5 1.7z"/><path class="a" d="m59.5 90.7c-0.3 0.6-1.1 0.8-1.7 0.4-0.6-0.3-0.8-1-0.4-1.6 0.3-0.6 1-0.9 1.6-0.5 0.6 0.3 0.8 1.1 0.5 1.7z"/><path class="a" d="m53.8 87.5c-0.3 0.6-1.1 0.8-1.7 0.5-0.5-0.3-0.8-1.1-0.4-1.7 0.3-0.6 1.1-0.8 1.6-0.5 0.6 0.3 0.9 1.1 0.5 1.7z"/><path class="a" d="m48.1 84.3c-0.3 0.6-1.1 0.9-1.7 0.5-0.5-0.3-0.8-1.1-0.4-1.7 0.3-0.5 1.1-0.8 1.6-0.4 0.6 0.3 0.9 1 0.5 1.6z"/><path class="a" d="m42.4 81.2c-0.3 0.6-1.1 0.8-1.6 0.5-0.6-0.4-0.9-1.1-0.5-1.7 0.3-0.6 1.1-0.8 1.7-0.5 0.5 0.3 0.8 1.1 0.4 1.7z"/><path class="a" d="m36.7 78c-0.3 0.6-1.1 0.8-1.6 0.5-0.6-0.3-0.9-1.1-0.5-1.7 0.3-0.6 1.1-0.8 1.7-0.5 0.5 0.4 0.8 1.1 0.4 1.7z"/><path class="a" d="m31 74.9c-0.3 0.6-1 0.8-1.6 0.5-0.6-0.4-0.8-1.1-0.5-1.7 0.3-0.6 1.1-0.8 1.7-0.5 0.6 0.3 0.8 1.1 0.4 1.7z"/><path class="a" d="m25.3 71.7c-0.3 0.6-1 0.8-1.6 0.5-0.6-0.3-0.8-1.1-0.5-1.7 0.3-0.6 1.1-0.8 1.7-0.5 0.6 0.4 0.8 1.1 0.4 1.7z"/><path class="a" d="m74.1 91.2c-0.3 0.6-1.1 0.8-1.7 0.5-0.6-0.3-0.8-1.1-0.5-1.7 0.4-0.6 1.1-0.8 1.7-0.5 0.6 0.4 0.8 1.1 0.5 1.7z"/><path class="a" d="m68.4 88.1c-0.3 0.6-1.1 0.8-1.7 0.5-0.6-0.4-0.8-1.1-0.5-1.7 0.4-0.6 1.1-0.8 1.7-0.5 0.6 0.3 0.8 1.1 0.5 1.7z"/><path class="a" d="m62.7 84.9c-0.3 0.6-1.1 0.8-1.7 0.5-0.6-0.3-0.8-1.1-0.4-1.7 0.3-0.6 1-0.8 1.6-0.5 0.6 0.4 0.8 1.1 0.5 1.7z"/><path class="a" d="m57 81.8c-0.3 0.6-1.1 0.8-1.7 0.4-0.6-0.3-0.8-1-0.4-1.6 0.3-0.6 1-0.9 1.6-0.5 0.6 0.3 0.8 1.1 0.5 1.7z"/><path class="a" d="m51.3 78.6c-0.3 0.6-1.1 0.8-1.7 0.5-0.6-0.3-0.8-1.1-0.4-1.7 0.3-0.6 1-0.8 1.6-0.5 0.6 0.3 0.8 1.1 0.5 1.7z"/><path class="a" d="m45.6 75.4c-0.3 0.6-1.1 0.9-1.7 0.5-0.6-0.3-0.8-1.1-0.4-1.7 0.3-0.6 1-0.8 1.6-0.4 0.6 0.3 0.8 1 0.5 1.6z"/><path class="a" d="m39.9 72.3c-0.3 0.6-1.1 0.8-1.7 0.5-0.6-0.4-0.8-1.1-0.4-1.7 0.3-0.6 1-0.8 1.6-0.5 0.6 0.3 0.8 1.1 0.5 1.7z"/><path class="a" d="m34.2 69.1c-0.3 0.6-1.1 0.8-1.7 0.5-0.6-0.3-0.8-1.1-0.4-1.7 0.3-0.6 1.1-0.8 1.6-0.5 0.6 0.4 0.8 1.1 0.5 1.7z"/><path class="a" d="m28.5 66c-0.3 0.6-1.1 0.8-1.7 0.5-0.5-0.4-0.8-1.1-0.4-1.7 0.3-0.6 1.1-0.8 1.6-0.5 0.6 0.3 0.9 1.1 0.5 1.7z"/><path class="a" d="m83 88.6c-0.4 0.6-1.1 0.9-1.7 0.5-0.6-0.3-0.8-1.1-0.5-1.7 0.4-0.6 1.1-0.8 1.7-0.4 0.6 0.3 0.8 1 0.5 1.6z"/><path class="a" d="m77.3 85.5c-0.4 0.6-1.1 0.8-1.7 0.5-0.6-0.4-0.8-1.1-0.5-1.7 0.4-0.6 1.1-0.8 1.7-0.5 0.6 0.3 0.8 1.1 0.5 1.7z"/><path class="a" d="m71.6 82.3c-0.4 0.6-1.1 0.8-1.7 0.5-0.6-0.3-0.8-1.1-0.5-1.7 0.4-0.6 1.1-0.8 1.7-0.5 0.6 0.4 0.8 1.1 0.5 1.7z"/><path class="a" d="m65.9 79.2c-0.3 0.6-1.1 0.8-1.7 0.5-0.6-0.4-0.8-1.1-0.5-1.7 0.4-0.6 1.1-0.8 1.7-0.5 0.6 0.3 0.8 1.1 0.5 1.7z"/><path class="a" d="m60.2 76c-0.3 0.6-1.1 0.8-1.7 0.5-0.6-0.3-0.8-1.1-0.5-1.7 0.4-0.6 1.1-0.8 1.7-0.5 0.6 0.4 0.8 1.1 0.5 1.7z"/><path class="a" d="m54.5 72.8c-0.3 0.6-1.1 0.9-1.7 0.5-0.6-0.3-0.8-1-0.5-1.6 0.4-0.6 1.1-0.9 1.7-0.5 0.6 0.3 0.8 1.1 0.5 1.6z"/><path class="a" d="m48.8 69.7c-0.3 0.6-1.1 0.8-1.7 0.5-0.6-0.3-0.8-1.1-0.5-1.7 0.4-0.6 1.1-0.8 1.7-0.5 0.6 0.3 0.8 1.1 0.5 1.7z"/><path class="a" d="m43.1 66.5c-0.3 0.6-1.1 0.9-1.7 0.5-0.6-0.3-0.8-1.1-0.5-1.7 0.4-0.6 1.1-0.8 1.7-0.4 0.6 0.3 0.8 1 0.5 1.6z"/><path class="a" d="m37.4 63.4c-0.3 0.6-1.1 0.8-1.7 0.5-0.6-0.4-0.8-1.1-0.4-1.7 0.3-0.6 1-0.8 1.6-0.5 0.6 0.3 0.8 1.1 0.5 1.7z"/><path class="a" d="m31.7 60.2c-0.3 0.6-1.1 0.8-1.7 0.5-0.6-0.3-0.8-1.1-0.4-1.7 0.3-0.6 1-0.8 1.6-0.5 0.6 0.4 0.8 1.1 0.5 1.7z"/><path class="a" d="m91.9 86.1c-0.4 0.5-1.1 0.8-1.7 0.4-0.6-0.3-0.8-1-0.5-1.6 0.3-0.6 1.1-0.9 1.7-0.5 0.6 0.3 0.8 1.1 0.5 1.7z"/><path class="a" d="m86.2 82.9c-0.4 0.6-1.1 0.8-1.7 0.5-0.6-0.3-0.8-1.1-0.5-1.7 0.3-0.6 1.1-0.8 1.7-0.5 0.6 0.3 0.8 1.1 0.5 1.7z"/><path class="a" d="m80.5 79.7c-0.4 0.6-1.1 0.9-1.7 0.5-0.6-0.3-0.8-1.1-0.5-1.7 0.3-0.6 1.1-0.8 1.7-0.4 0.6 0.3 0.8 1 0.5 1.6z"/><path class="a" d="m74.8 76.6c-0.4 0.6-1.1 0.8-1.7 0.5-0.6-0.4-0.8-1.1-0.5-1.7 0.3-0.6 1.1-0.8 1.7-0.5 0.6 0.3 0.8 1.1 0.5 1.7z"/><path class="a" d="m69.1 73.4c-0.4 0.6-1.1 0.8-1.7 0.5-0.6-0.3-0.8-1.1-0.5-1.7 0.4-0.6 1.1-0.8 1.7-0.5 0.6 0.4 0.8 1.1 0.5 1.7z"/><path class="a" d="m63.4 70.3c-0.4 0.6-1.1 0.8-1.7 0.5-0.6-0.4-0.8-1.1-0.5-1.7 0.4-0.6 1.1-0.8 1.7-0.5 0.6 0.3 0.8 1.1 0.5 1.7z"/><path class="a" d="m57.7 67.1c-0.4 0.6-1.1 0.8-1.7 0.5-0.6-0.3-0.8-1.1-0.5-1.7 0.4-0.6 1.1-0.8 1.7-0.5 0.6 0.4 0.8 1.1 0.5 1.7z"/><path class="a" d="m52 63.9c-0.4 0.6-1.1 0.9-1.7 0.5-0.6-0.3-0.8-1-0.5-1.6 0.4-0.6 1.1-0.9 1.7-0.5 0.6 0.3 0.8 1 0.5 1.6z"/><path class="a" d="m46.3 60.8c-0.3 0.6-1.1 0.8-1.7 0.5-0.6-0.4-0.8-1.1-0.5-1.7 0.4-0.6 1.1-0.8 1.7-0.5 0.6 0.3 0.8 1.1 0.5 1.7z"/><path class="a" d="m40.6 57.6c-0.3 0.6-1.1 0.8-1.7 0.5-0.6-0.3-0.8-1.1-0.5-1.7 0.4-0.6 1.1-0.8 1.7-0.4 0.6 0.3 0.8 1 0.5 1.6z"/><path class="a" d="m34.9 54.5c-0.3 0.6-1.1 0.8-1.7 0.5-0.6-0.4-0.8-1.1-0.5-1.7 0.4-0.6 1.1-0.8 1.7-0.5 0.6 0.3 0.8 1.1 0.5 1.7z"/><path class="a" d="m99.1 84c-0.6-0.4-0.8-1.1-0.5-1.7 0.3-0.6 1.1-0.8 1.7-0.5 0.6 0.3 0.8 1.1 0.4 1.7-0.3 0.6-1 0.8-1.6 0.5z"/><path class="a" d="m95 80.3c-0.3 0.6-1 0.8-1.6 0.5-0.6-0.3-0.8-1.1-0.5-1.7 0.3-0.6 1.1-0.8 1.7-0.5 0.6 0.4 0.8 1.1 0.4 1.7z"/><path class="a" d="m87.7 77.6c-0.6-0.3-0.8-1-0.5-1.6 0.3-0.6 1.1-0.9 1.7-0.5 0.6 0.3 0.8 1.1 0.4 1.6-0.3 0.6-1 0.9-1.6 0.5z"/><path class="a" d="m83.6 74c-0.3 0.6-1 0.8-1.6 0.5-0.6-0.3-0.8-1.1-0.5-1.7 0.3-0.6 1.1-0.8 1.7-0.5 0.6 0.3 0.8 1.1 0.4 1.7z"/><path class="a" d="m76.3 71.3c-0.6-0.3-0.8-1.1-0.5-1.7 0.3-0.6 1.1-0.8 1.7-0.4 0.6 0.3 0.8 1 0.5 1.6-0.4 0.6-1.1 0.9-1.7 0.5z"/><path class="a" d="m72.3 67.7c-0.4 0.6-1.1 0.8-1.7 0.5-0.6-0.4-0.8-1.1-0.5-1.7 0.3-0.6 1.1-0.8 1.7-0.5 0.6 0.3 0.8 1.1 0.5 1.7z"/><path class="a" d="m64.9 65c-0.6-0.3-0.8-1.1-0.5-1.7 0.3-0.6 1.1-0.8 1.7-0.5 0.6 0.4 0.8 1.1 0.5 1.7-0.4 0.6-1.1 0.8-1.7 0.5z"/><path class="a" d="m60.9 61.4c-0.4 0.6-1.1 0.8-1.7 0.4-0.6-0.3-0.8-1-0.5-1.6 0.3-0.6 1.1-0.8 1.7-0.5 0.6 0.3 0.8 1.1 0.5 1.7z"/><path class="a" d="m53.5 58.7c-0.6-0.3-0.8-1.1-0.5-1.7 0.3-0.6 1.1-0.8 1.7-0.5 0.6 0.4 0.8 1.1 0.5 1.7-0.4 0.6-1.1 0.8-1.7 0.5z"/><path class="a" d="m49.5 55c-0.4 0.6-1.1 0.9-1.7 0.5-0.6-0.3-0.8-1-0.5-1.6 0.4-0.6 1.1-0.9 1.7-0.5 0.6 0.3 0.8 1 0.5 1.6z"/><path class="a" d="m42.1 52.4c-0.6-0.4-0.8-1.1-0.5-1.7 0.4-0.6 1.1-0.8 1.7-0.5 0.6 0.3 0.8 1.1 0.5 1.7-0.4 0.6-1.1 0.8-1.7 0.5z"/><path class="a" d="m38.1 48.7c-0.4 0.6-1.1 0.8-1.7 0.5-0.6-0.3-0.8-1.1-0.5-1.7 0.4-0.6 1.1-0.8 1.7-0.4 0.6 0.3 0.8 1 0.5 1.6z"/><path class="a" d="m109.6 80.9c-0.3 0.6-1.1 0.8-1.7 0.5-0.5-0.4-0.8-1.1-0.4-1.7 0.3-0.6 1.1-0.8 1.6-0.5 0.6 0.3 0.8 1.1 0.5 1.7z"/><path class="a" d="m103.9 77.7c-0.3 0.6-1.1 0.8-1.7 0.5-0.5-0.3-0.8-1.1-0.4-1.7 0.3-0.6 1.1-0.8 1.6-0.5 0.6 0.4 0.9 1.1 0.5 1.7z"/><path class="a" d="m98.2 74.6c-0.3 0.6-1.1 0.8-1.7 0.5-0.5-0.4-0.8-1.1-0.4-1.7 0.3-0.6 1.1-0.8 1.7-0.5 0.5 0.3 0.8 1.1 0.4 1.7z"/><path class="a" d="m92.5 71.4c-0.3 0.6-1.1 0.8-1.6 0.5-0.6-0.3-0.9-1.1-0.5-1.7 0.3-0.6 1.1-0.8 1.7-0.5 0.5 0.4 0.8 1.1 0.4 1.7z"/><path class="a" d="m86.8 68.2c-0.3 0.6-1.1 0.9-1.6 0.5-0.6-0.3-0.8-1-0.5-1.6 0.3-0.6 1.1-0.9 1.7-0.5 0.5 0.3 0.8 1 0.4 1.6z"/><path class="a" d="m81.1 65.1c-0.3 0.6-1 0.8-1.6 0.5-0.6-0.4-0.8-1.1-0.5-1.7 0.3-0.6 1.1-0.8 1.7-0.5 0.6 0.3 0.8 1.1 0.4 1.7z"/><path class="a" d="m75.4 61.9c-0.3 0.6-1 0.8-1.6 0.5-0.6-0.3-0.8-1.1-0.5-1.7 0.3-0.6 1.1-0.8 1.7-0.4 0.6 0.3 0.8 1 0.4 1.6z"/><path class="a" d="m69.7 58.8c-0.3 0.6-1 0.8-1.6 0.5-0.6-0.4-0.8-1.1-0.5-1.7 0.3-0.6 1.1-0.8 1.7-0.5 0.6 0.3 0.8 1.1 0.4 1.7z"/><path class="a" d="m64 55.6c-0.3 0.6-1 0.8-1.6 0.5-0.6-0.3-0.8-1.1-0.5-1.7 0.3-0.6 1.1-0.8 1.7-0.5 0.6 0.4 0.8 1.1 0.4 1.7z"/><path class="a" d="m58.3 52.5c-0.3 0.6-1 0.8-1.6 0.4-0.6-0.3-0.8-1-0.5-1.6 0.3-0.6 1.1-0.8 1.7-0.5 0.6 0.3 0.8 1.1 0.4 1.7z"/><path class="a" d="m52.7 49.3c-0.4 0.6-1.1 0.8-1.7 0.5-0.6-0.3-0.8-1.1-0.5-1.7 0.3-0.6 1.1-0.8 1.7-0.5 0.6 0.4 0.8 1.1 0.5 1.7z"/><path class="a" d="m47 46.1c-0.4 0.6-1.1 0.9-1.7 0.5-0.6-0.3-0.8-1-0.5-1.6 0.3-0.6 1.1-0.9 1.7-0.5 0.6 0.3 0.8 1 0.5 1.6z"/><path class="a" d="m41.3 43c-0.4 0.6-1.1 0.8-1.7 0.5-0.6-0.4-0.8-1.1-0.5-1.7 0.3-0.6 1.1-0.8 1.7-0.5 0.6 0.3 0.8 1.1 0.5 1.7z"/><path class="a" d="m116.8 78.8c-0.6-0.4-0.8-1.1-0.5-1.7 0.4-0.6 1.1-0.8 1.7-0.5 0.6 0.3 0.8 1.1 0.5 1.7-0.3 0.6-1.1 0.8-1.7 0.5z"/><path class="a" d="m112.8 75.1c-0.3 0.6-1.1 0.8-1.7 0.5-0.6-0.3-0.8-1.1-0.4-1.7 0.3-0.6 1-0.8 1.6-0.4 0.6 0.3 0.8 1 0.5 1.6z"/><path class="a" d="m105.4 72.5c-0.6-0.4-0.8-1.1-0.4-1.7 0.3-0.6 1-0.8 1.6-0.5 0.6 0.3 0.8 1.1 0.5 1.7-0.3 0.6-1.1 0.8-1.7 0.5z"/><path class="a" d="m101.4 68.8c-0.3 0.6-1.1 0.8-1.7 0.5-0.6-0.3-0.8-1.1-0.4-1.7 0.3-0.6 1-0.8 1.6-0.5 0.6 0.4 0.8 1.1 0.5 1.7z"/><path class="a" d="m94 66.1c-0.6-0.3-0.8-1-0.4-1.6 0.3-0.6 1-0.8 1.6-0.5 0.6 0.3 0.8 1.1 0.5 1.7-0.3 0.6-1.1 0.8-1.7 0.4z"/><path class="a" d="m90 62.5c-0.3 0.6-1.1 0.8-1.7 0.5-0.6-0.3-0.8-1.1-0.4-1.7 0.3-0.6 1-0.8 1.6-0.5 0.6 0.4 0.8 1.1 0.5 1.7z"/><path class="a" d="m82.6 59.8c-0.6-0.3-0.8-1-0.4-1.6 0.3-0.6 1.1-0.9 1.6-0.5 0.6 0.3 0.8 1 0.5 1.6-0.3 0.6-1.1 0.9-1.7 0.5z"/><path class="a" d="m78.6 56.2c-0.3 0.6-1.1 0.8-1.7 0.5-0.5-0.4-0.8-1.1-0.4-1.7 0.3-0.6 1.1-0.8 1.6-0.5 0.6 0.3 0.9 1.1 0.5 1.7z"/><path class="a" d="m71.3 53.5c-0.6-0.3-0.9-1.1-0.5-1.7 0.3-0.6 1.1-0.8 1.7-0.4 0.5 0.3 0.8 1 0.4 1.6-0.3 0.6-1.1 0.8-1.6 0.5z"/><path class="a" d="m67.2 49.9c-0.3 0.6-1.1 0.8-1.6 0.5-0.6-0.4-0.9-1.1-0.5-1.7 0.3-0.6 1.1-0.8 1.7-0.5 0.5 0.3 0.8 1.1 0.4 1.7z"/><path class="a" d="m59.9 47.2c-0.6-0.3-0.8-1.1-0.5-1.7 0.3-0.6 1.1-0.8 1.7-0.5 0.6 0.4 0.8 1.1 0.4 1.7-0.3 0.6-1 0.8-1.6 0.5z"/><path class="a" d="m55.8 43.6c-0.3 0.6-1 0.8-1.6 0.4-0.6-0.3-0.8-1-0.5-1.6 0.3-0.6 1.1-0.9 1.7-0.5 0.6 0.3 0.8 1.1 0.4 1.7z"/><path class="a" d="m48.5 40.9c-0.6-0.3-0.8-1.1-0.5-1.7 0.3-0.6 1.1-0.8 1.7-0.5 0.6 0.3 0.8 1.1 0.4 1.7-0.3 0.6-1 0.8-1.6 0.5z"/><path class="a" d="m44.4 37.2c-0.3 0.6-1 0.9-1.6 0.5-0.6-0.3-0.8-1.1-0.5-1.6 0.3-0.6 1.1-0.9 1.7-0.5 0.6 0.3 0.8 1 0.4 1.6z"/><path class="a" d="m127.4 75.7c-0.4 0.6-1.1 0.8-1.7 0.5-0.6-0.3-0.8-1.1-0.5-1.7 0.4-0.6 1.1-0.8 1.7-0.5 0.6 0.4 0.8 1.1 0.5 1.7z"/><path class="a" d="m121.7 72.5c-0.3 0.6-1.1 0.9-1.7 0.5-0.6-0.3-0.8-1-0.5-1.6 0.4-0.6 1.1-0.9 1.7-0.5 0.6 0.3 0.8 1 0.5 1.6z"/><path class="a" d="m116 69.4c-0.3 0.6-1.1 0.8-1.7 0.5-0.6-0.4-0.8-1.1-0.5-1.7 0.4-0.6 1.1-0.8 1.7-0.5 0.6 0.3 0.8 1.1 0.5 1.7z"/><path class="a" d="m110.3 66.2c-0.3 0.6-1.1 0.8-1.7 0.5-0.6-0.3-0.8-1.1-0.5-1.7 0.4-0.6 1.1-0.8 1.7-0.4 0.6 0.3 0.8 1 0.5 1.6z"/><path class="a" d="m104.6 63.1c-0.3 0.6-1.1 0.8-1.7 0.5-0.6-0.4-0.8-1.1-0.5-1.7 0.4-0.6 1.1-0.8 1.7-0.5 0.6 0.3 0.8 1.1 0.5 1.7z"/><path class="a" d="m98.9 59.9c-0.3 0.6-1.1 0.8-1.7 0.5-0.6-0.3-0.8-1.1-0.5-1.7 0.4-0.6 1.1-0.8 1.7-0.5 0.6 0.4 0.8 1.1 0.5 1.7z"/><path class="a" d="m93.2 56.8c-0.3 0.6-1.1 0.8-1.7 0.4-0.6-0.3-0.8-1-0.4-1.6 0.3-0.6 1-0.8 1.6-0.5 0.6 0.3 0.8 1.1 0.5 1.7z"/><path class="a" d="m87.5 53.6c-0.3 0.6-1.1 0.8-1.7 0.5-0.6-0.3-0.8-1.1-0.4-1.7 0.3-0.6 1-0.8 1.6-0.5 0.6 0.4 0.8 1.1 0.5 1.7z"/><path class="a" d="m81.8 50.4c-0.3 0.6-1.1 0.9-1.7 0.5-0.6-0.3-0.8-1-0.4-1.6 0.3-0.6 1-0.9 1.6-0.5 0.6 0.3 0.8 1 0.5 1.6z"/><path class="a" d="m76.1 47.3c-0.3 0.6-1.1 0.8-1.7 0.5-0.6-0.4-0.8-1.1-0.4-1.7 0.3-0.6 1-0.8 1.6-0.5 0.6 0.3 0.8 1.1 0.5 1.7z"/><path class="a" d="m70.4 44.1c-0.3 0.6-1.1 0.8-1.7 0.5-0.6-0.3-0.8-1.1-0.4-1.7 0.3-0.6 1-0.8 1.6-0.5 0.6 0.4 0.8 1.1 0.5 1.7z"/><path class="a" d="m64.7 41c-0.3 0.6-1.1 0.8-1.7 0.5-0.6-0.4-0.8-1.1-0.4-1.7 0.3-0.6 1-0.8 1.6-0.5 0.6 0.3 0.8 1.1 0.5 1.7z"/><path class="a" d="m59 37.8c-0.3 0.6-1.1 0.8-1.7 0.5-0.5-0.3-0.8-1.1-0.4-1.7 0.3-0.6 1.1-0.8 1.6-0.5 0.6 0.4 0.9 1.1 0.5 1.7z"/><path class="a" d="m53.3 34.7c-0.3 0.6-1.1 0.8-1.7 0.4-0.5-0.3-0.8-1-0.4-1.6 0.3-0.6 1.1-0.9 1.6-0.5 0.6 0.3 0.9 1.1 0.5 1.7z"/><path class="a" d="m47.6 31.5c-0.3 0.6-1.1 0.8-1.6 0.5-0.6-0.3-0.9-1.1-0.5-1.7 0.3-0.6 1.1-0.8 1.7-0.5 0.5 0.3 0.8 1.1 0.4 1.7z"/><path class="a" d="m134.6 73.6c-0.6-0.3-0.8-1.1-0.5-1.7 0.3-0.6 1.1-0.8 1.7-0.5 0.6 0.4 0.8 1.1 0.5 1.7-0.4 0.6-1.1 0.8-1.7 0.5z"/><path class="a" d="m130.6 70c-0.4 0.6-1.1 0.8-1.7 0.4-0.6-0.3-0.8-1-0.5-1.6 0.3-0.6 1.1-0.8 1.7-0.5 0.6 0.3 0.8 1.1 0.5 1.7z"/><path class="a" d="m123.2 67.3c-0.6-0.3-0.8-1.1-0.5-1.7 0.4-0.6 1.1-0.8 1.7-0.5 0.6 0.4 0.8 1.1 0.5 1.7-0.4 0.6-1.1 0.8-1.7 0.5z"/><path class="a" d="m119.2 63.6c-0.4 0.6-1.1 0.9-1.7 0.5-0.6-0.3-0.8-1-0.5-1.6 0.4-0.6 1.1-0.9 1.7-0.5 0.6 0.3 0.8 1 0.5 1.6z"/><path class="a" d="m111.8 61c-0.6-0.4-0.8-1.1-0.5-1.7 0.4-0.6 1.1-0.8 1.7-0.5 0.6 0.3 0.8 1.1 0.5 1.7-0.4 0.6-1.1 0.8-1.7 0.5z"/><path class="a" d="m107.8 57.3c-0.4 0.6-1.1 0.8-1.7 0.5-0.6-0.3-0.8-1.1-0.5-1.7 0.4-0.6 1.1-0.8 1.7-0.5 0.6 0.4 0.8 1.1 0.5 1.7z"/><path class="a" d="m100.4 54.7c-0.6-0.4-0.8-1.1-0.5-1.7 0.4-0.6 1.1-0.8 1.7-0.5 0.6 0.3 0.8 1.1 0.5 1.7-0.4 0.6-1.1 0.8-1.7 0.5z"/><path class="a" d="m96.4 51c-0.3 0.6-1.1 0.8-1.7 0.5-0.6-0.3-0.8-1.1-0.5-1.7 0.4-0.6 1.1-0.8 1.7-0.5 0.6 0.4 0.8 1.1 0.5 1.7z"/><path class="a" d="m89 48.3c-0.6-0.3-0.8-1-0.5-1.6 0.4-0.6 1.1-0.9 1.7-0.5 0.6 0.3 0.8 1.1 0.5 1.7-0.3 0.6-1.1 0.8-1.7 0.4z"/><path class="a" d="m85 44.7c-0.3 0.6-1.1 0.8-1.7 0.5-0.6-0.3-0.8-1.1-0.5-1.7 0.4-0.6 1.1-0.8 1.7-0.5 0.6 0.3 0.8 1.1 0.5 1.7z"/><path class="a" d="m77.6 42c-0.6-0.3-0.8-1.1-0.5-1.7 0.4-0.5 1.1-0.8 1.7-0.4 0.6 0.3 0.8 1 0.5 1.6-0.3 0.6-1.1 0.9-1.7 0.5z"/><path class="a" d="m73.6 38.4c-0.3 0.6-1.1 0.8-1.7 0.5-0.6-0.4-0.8-1.1-0.5-1.7 0.4-0.6 1.1-0.8 1.7-0.5 0.6 0.3 0.8 1.1 0.5 1.7z"/><path class="a" d="m66.2 35.7c-0.6-0.3-0.8-1.1-0.4-1.7 0.3-0.6 1-0.8 1.6-0.5 0.6 0.4 0.8 1.1 0.5 1.7-0.3 0.6-1.1 0.8-1.7 0.5z"/><path class="a" d="m62.2 32.1c-0.3 0.6-1.1 0.8-1.7 0.5-0.6-0.4-0.8-1.1-0.4-1.7 0.3-0.6 1-0.8 1.6-0.5 0.6 0.3 0.8 1.1 0.5 1.7z"/><path class="a" d="m54.8 29.4c-0.6-0.3-0.8-1.1-0.4-1.7 0.3-0.6 1-0.8 1.6-0.5 0.6 0.4 0.8 1.1 0.5 1.7-0.3 0.6-1.1 0.8-1.7 0.5z"/><path class="a" d="m50.8 25.8c-0.3 0.6-1.1 0.8-1.7 0.4-0.6-0.3-0.8-1-0.4-1.6 0.3-0.6 1-0.9 1.6-0.5 0.6 0.3 0.8 1.1 0.5 1.7z"/><path class="a" d="m145.1 70.5c-0.3 0.6-1 0.8-1.6 0.5-0.6-0.3-0.8-1.1-0.5-1.7 0.3-0.6 1.1-0.8 1.7-0.4 0.6 0.3 0.8 1 0.4 1.6z"/><path class="a" d="m139.4 67.4c-0.3 0.6-1 0.8-1.6 0.5-0.6-0.4-0.8-1.1-0.5-1.7 0.3-0.6 1.1-0.8 1.7-0.5 0.6 0.3 0.8 1.1 0.4 1.7z"/><path class="a" d="m133.7 64.2c-0.3 0.6-1 0.8-1.6 0.5-0.6-0.3-0.8-1.1-0.5-1.7 0.3-0.6 1.1-0.8 1.7-0.5 0.6 0.4 0.8 1.1 0.4 1.7z"/><path class="a" d="m128.1 61.1c-0.4 0.6-1.1 0.8-1.7 0.4-0.6-0.3-0.8-1-0.5-1.6 0.3-0.6 1.1-0.8 1.7-0.5 0.6 0.3 0.8 1.1 0.5 1.7z"/><path class="a" d="m122.4 57.9c-0.4 0.6-1.1 0.8-1.7 0.5-0.6-0.3-0.8-1.1-0.5-1.7 0.3-0.6 1.1-0.8 1.7-0.5 0.6 0.4 0.8 1.1 0.5 1.7z"/><path class="a" d="m116.7 54.7c-0.4 0.6-1.1 0.9-1.7 0.5-0.6-0.3-0.8-1.1-0.5-1.6 0.3-0.6 1.1-0.9 1.7-0.5 0.6 0.3 0.8 1 0.5 1.6z"/><path class="a" d="m111 51.6c-0.4 0.6-1.1 0.8-1.7 0.5-0.6-0.4-0.8-1.1-0.5-1.7 0.3-0.6 1.1-0.8 1.7-0.5 0.6 0.3 0.8 1.1 0.5 1.7z"/><path class="a" d="m105.3 48.4c-0.4 0.6-1.1 0.8-1.7 0.5-0.6-0.3-0.8-1.1-0.5-1.7 0.3-0.6 1.1-0.8 1.7-0.5 0.6 0.4 0.8 1.1 0.5 1.7z"/><path class="a" d="m99.6 45.3c-0.4 0.6-1.1 0.8-1.7 0.5-0.6-0.4-0.8-1.1-0.5-1.7 0.4-0.6 1.1-0.8 1.7-0.5 0.6 0.3 0.8 1.1 0.5 1.7z"/><path class="a" d="m93.9 42.1c-0.4 0.6-1.1 0.8-1.7 0.5-0.6-0.3-0.8-1.1-0.5-1.7 0.4-0.6 1.1-0.8 1.7-0.5 0.6 0.4 0.8 1.1 0.5 1.7z"/><path class="a" d="m88.2 39c-0.4 0.6-1.1 0.8-1.7 0.4-0.6-0.3-0.8-1-0.5-1.6 0.4-0.6 1.1-0.9 1.7-0.5 0.6 0.3 0.8 1.1 0.5 1.7z"/><path class="a" d="m82.5 35.8c-0.4 0.6-1.1 0.8-1.7 0.5-0.6-0.3-0.8-1.1-0.5-1.7 0.4-0.6 1.1-0.8 1.7-0.5 0.6 0.3 0.8 1.1 0.5 1.7z"/><path class="a" d="m76.8 32.6c-0.3 0.6-1.1 0.9-1.7 0.5-0.6-0.3-0.8-1.1-0.5-1.7 0.4-0.6 1.1-0.8 1.7-0.4 0.6 0.3 0.8 1 0.5 1.6z"/><path class="a" d="m71.1 29.5c-0.3 0.6-1.1 0.8-1.7 0.5-0.6-0.4-0.8-1.1-0.5-1.7 0.4-0.6 1.1-0.8 1.7-0.5 0.6 0.3 0.8 1.1 0.5 1.7z"/><path class="a" d="m65.4 26.3c-0.3 0.6-1.1 0.8-1.7 0.5-0.6-0.3-0.8-1.1-0.5-1.7 0.4-0.6 1.1-0.8 1.7-0.5 0.6 0.4 0.8 1.1 0.5 1.7z"/><path class="a" d="m59.7 23.2c-0.3 0.6-1.1 0.8-1.7 0.5-0.6-0.4-0.8-1.1-0.5-1.7 0.4-0.6 1.1-0.8 1.7-0.5 0.6 0.3 0.8 1.1 0.5 1.7z"/><path class="a" d="m54 20c-0.3 0.6-1.1 0.8-1.7 0.5-0.6-0.3-0.8-1.1-0.5-1.7 0.4-0.6 1.1-0.8 1.7-0.5 0.6 0.4 0.8 1.1 0.5 1.7z"/><path class="a" d="m154 67.9c-0.3 0.6-1.1 0.9-1.7 0.5-0.5-0.3-0.8-1-0.4-1.6 0.3-0.6 1.1-0.9 1.6-0.5 0.6 0.3 0.9 1 0.5 1.6z"/><path class="a" d="m148.3 64.8c-0.3 0.6-1.1 0.8-1.6 0.5-0.6-0.4-0.9-1.1-0.5-1.7 0.3-0.6 1.1-0.8 1.7-0.5 0.5 0.3 0.8 1.1 0.4 1.7z"/><path class="a" d="m142.6 61.6c-0.3 0.6-1.1 0.8-1.6 0.5-0.6-0.3-0.9-1.1-0.5-1.7 0.3-0.6 1.1-0.8 1.7-0.5 0.5 0.4 0.8 1.1 0.4 1.7z"/><path class="a" d="m136.9 58.5c-0.3 0.6-1 0.8-1.6 0.5-0.6-0.4-0.8-1.1-0.5-1.7 0.3-0.6 1.1-0.8 1.7-0.5 0.6 0.3 0.8 1.1 0.4 1.7z"/><path class="a" d="m131.2 55.3c-0.3 0.6-1 0.8-1.6 0.5-0.6-0.3-0.8-1.1-0.5-1.7 0.3-0.6 1.1-0.8 1.7-0.5 0.6 0.4 0.8 1.1 0.4 1.7z"/><path class="a" d="m125.5 52.2c-0.3 0.6-1 0.8-1.6 0.4-0.6-0.3-0.8-1-0.5-1.6 0.3-0.6 1.1-0.9 1.7-0.5 0.6 0.3 0.8 1.1 0.4 1.7z"/><path class="a" d="m119.8 49c-0.3 0.6-1 0.8-1.6 0.5-0.6-0.3-0.8-1.1-0.5-1.7 0.3-0.6 1.1-0.8 1.7-0.5 0.6 0.3 0.8 1.1 0.4 1.7z"/><path class="a" d="m114.1 45.8c-0.3 0.6-1 0.9-1.6 0.5-0.6-0.3-0.8-1.1-0.5-1.7 0.3-0.5 1.1-0.8 1.7-0.4 0.6 0.3 0.8 1 0.4 1.6z"/><path class="a" d="m108.4 42.7c-0.3 0.6-1 0.8-1.6 0.5-0.6-0.4-0.8-1.1-0.5-1.7 0.3-0.6 1.1-0.8 1.7-0.5 0.6 0.3 0.8 1.1 0.4 1.7z"/><path class="a" d="m102.8 39.5c-0.4 0.6-1.1 0.8-1.7 0.5-0.6-0.3-0.8-1.1-0.5-1.7 0.3-0.6 1.1-0.8 1.7-0.5 0.6 0.4 0.8 1.1 0.5 1.7z"/><path class="a" d="m97.1 36.4c-0.4 0.6-1.1 0.8-1.7 0.5-0.6-0.4-0.8-1.1-0.5-1.7 0.3-0.6 1.1-0.8 1.7-0.5 0.6 0.3 0.8 1.1 0.5 1.7z"/><path class="a" d="m91.4 33.2c-0.4 0.6-1.1 0.8-1.7 0.5-0.6-0.3-0.8-1.1-0.5-1.7 0.3-0.6 1.1-0.8 1.7-0.5 0.6 0.4 0.8 1.1 0.5 1.7z"/><path class="a" d="m85.7 30.1c-0.4 0.5-1.1 0.8-1.7 0.4-0.6-0.3-0.8-1-0.5-1.6 0.3-0.6 1.1-0.9 1.7-0.5 0.6 0.3 0.8 1.1 0.5 1.7z"/><path class="a" d="m80 26.9c-0.4 0.6-1.1 0.8-1.7 0.5-0.6-0.3-0.8-1.1-0.5-1.7 0.3-0.6 1.1-0.8 1.7-0.5 0.6 0.3 0.8 1.1 0.5 1.7z"/><path class="a" d="m74.3 23.7c-0.4 0.6-1.1 0.9-1.7 0.5-0.6-0.3-0.8-1.1-0.5-1.7 0.4-0.6 1.1-0.8 1.7-0.4 0.6 0.3 0.8 1 0.5 1.6z"/><path class="a" d="m68.6 20.6c-0.4 0.6-1.1 0.8-1.7 0.5-0.6-0.4-0.8-1.1-0.5-1.7 0.4-0.6 1.1-0.8 1.7-0.5 0.6 0.3 0.8 1.1 0.5 1.7z"/><path class="a" d="m62.9 17.4c-0.4 0.6-1.1 0.8-1.7 0.5-0.6-0.3-0.8-1.1-0.5-1.7 0.4-0.6 1.1-0.8 1.7-0.5 0.6 0.4 0.8 1.1 0.5 1.7z"/><path class="a" d="m57.2 14.3c-0.4 0.6-1.1 0.8-1.7 0.5-0.6-0.4-0.8-1.1-0.5-1.7 0.4-0.6 1.1-0.8 1.7-0.5 0.6 0.3 0.8 1.1 0.5 1.7z"/><path class="a" d="m162.9 65.4c-0.3 0.6-1.1 0.8-1.7 0.4-0.6-0.3-0.8-1-0.4-1.6 0.3-0.6 1-0.9 1.6-0.5 0.6 0.3 0.8 1.1 0.5 1.7z"/><path class="a" d="m157.2 62.2c-0.3 0.6-1.1 0.8-1.7 0.5-0.6-0.3-0.8-1.1-0.4-1.7 0.3-0.6 1-0.8 1.6-0.5 0.6 0.3 0.8 1.1 0.5 1.7z"/><path class="a" d="m151.5 59c-0.3 0.6-1.1 0.9-1.7 0.5-0.6-0.3-0.8-1.1-0.4-1.6 0.3-0.6 1-0.9 1.6-0.5 0.6 0.3 0.8 1 0.5 1.6z"/><path class="a" d="m145.8 55.9c-0.3 0.6-1.1 0.8-1.7 0.5-0.6-0.4-0.8-1.1-0.4-1.7 0.3-0.6 1-0.8 1.6-0.5 0.6 0.3 0.8 1.1 0.5 1.7z"/><path class="a" d="m140.1 52.7c-0.3 0.6-1.1 0.8-1.7 0.5-0.6-0.3-0.8-1.1-0.4-1.7 0.3-0.6 1-0.8 1.6-0.5 0.6 0.4 0.8 1.1 0.5 1.7z"/><path class="a" d="m134.4 49.6c-0.3 0.6-1.1 0.8-1.7 0.5-0.5-0.4-0.8-1.1-0.4-1.7 0.3-0.6 1.1-0.8 1.6-0.5 0.6 0.3 0.9 1.1 0.5 1.7z"/><path class="a" d="m128.7 46.4c-0.3 0.6-1.1 0.8-1.7 0.5-0.5-0.3-0.8-1.1-0.4-1.7 0.3-0.6 1.1-0.8 1.6-0.5 0.6 0.4 0.9 1.1 0.5 1.7z"/><path class="a" d="m123 43.3c-0.3 0.6-1.1 0.8-1.6 0.4-0.6-0.3-0.9-1-0.5-1.6 0.3-0.6 1.1-0.9 1.7-0.5 0.5 0.3 0.8 1.1 0.4 1.7z"/><path class="a" d="m117.3 40.1c-0.3 0.6-1.1 0.8-1.6 0.5-0.6-0.3-0.9-1.1-0.5-1.7 0.3-0.6 1.1-0.8 1.7-0.5 0.5 0.3 0.8 1.1 0.4 1.7z"/><path class="a" d="m111.6 36.9c-0.3 0.6-1 0.9-1.6 0.5-0.6-0.3-0.8-1.1-0.5-1.7 0.3-0.6 1.1-0.8 1.7-0.4 0.6 0.3 0.8 1 0.4 1.6z"/><path class="a" d="m105.9 33.8c-0.3 0.6-1 0.8-1.6 0.5-0.6-0.4-0.8-1.1-0.5-1.7 0.3-0.6 1.1-0.8 1.7-0.5 0.6 0.3 0.8 1.1 0.4 1.7z"/><path class="a" d="m100.2 30.6c-0.3 0.6-1 0.8-1.6 0.5-0.6-0.3-0.8-1.1-0.5-1.7 0.3-0.6 1.1-0.8 1.7-0.5 0.6 0.4 0.8 1.1 0.4 1.7z"/><path class="a" d="m94.5 27.5c-0.3 0.6-1 0.8-1.6 0.5-0.6-0.4-0.8-1.1-0.5-1.7 0.3-0.6 1.1-0.8 1.7-0.5 0.6 0.3 0.8 1.1 0.4 1.7z"/><path class="a" d="m88.8 24.3c-0.3 0.6-1 0.8-1.6 0.5-0.6-0.3-0.8-1.1-0.5-1.7 0.3-0.6 1.1-0.8 1.7-0.5 0.6 0.4 0.8 1.1 0.4 1.7z"/><path class="a" d="m83.2 21.1c-0.4 0.6-1.1 0.9-1.7 0.5-0.6-0.3-0.8-1-0.5-1.6 0.3-0.6 1.1-0.9 1.7-0.5 0.6 0.3 0.8 1.1 0.5 1.6z"/><path class="a" d="m77.5 18c-0.4 0.6-1.1 0.8-1.7 0.5-0.6-0.4-0.8-1.1-0.5-1.7 0.3-0.6 1.1-0.8 1.7-0.5 0.6 0.3 0.8 1.1 0.5 1.7z"/><path class="a" d="m71.8 14.8c-0.4 0.6-1.1 0.8-1.7 0.5-0.6-0.3-0.8-1.1-0.5-1.7 0.3-0.6 1.1-0.8 1.7-0.4 0.6 0.3 0.8 1 0.5 1.6z"/><path class="a" d="m66.1 11.7c-0.4 0.6-1.1 0.8-1.7 0.5-0.6-0.4-0.8-1.1-0.5-1.7 0.3-0.6 1.1-0.8 1.7-0.5 0.6 0.3 0.8 1.1 0.5 1.7z"/><path class="a" d="m60.4 8.5c-0.4 0.6-1.1 0.8-1.7 0.5-0.6-0.3-0.8-1.1-0.5-1.7 0.3-0.6 1.1-0.8 1.7-0.5 0.6 0.4 0.8 1.1 0.5 1.7z"/><path class="a" d="m171.8 62.8c-0.3 0.6-1.1 0.8-1.7 0.5-0.6-0.4-0.8-1.1-0.5-1.7 0.4-0.6 1.1-0.8 1.7-0.5 0.6 0.3 0.8 1.1 0.5 1.7z"/><path class="a" d="m166.1 59.6c-0.3 0.6-1.1 0.8-1.7 0.5-0.6-0.3-0.8-1.1-0.5-1.7 0.4-0.6 1.1-0.8 1.7-0.5 0.6 0.4 0.8 1.1 0.5 1.7z"/><path class="a" d="m160.4 56.5c-0.3 0.6-1.1 0.8-1.7 0.4-0.6-0.3-0.8-1-0.5-1.6 0.4-0.6 1.1-0.9 1.7-0.5 0.6 0.3 0.8 1.1 0.5 1.7z"/><path class="a" d="m154.7 53.3c-0.3 0.6-1.1 0.8-1.7 0.5-0.6-0.3-0.8-1.1-0.5-1.7 0.4-0.6 1.1-0.8 1.7-0.5 0.6 0.3 0.8 1.1 0.5 1.7z"/><path class="a" d="m149 50.1c-0.3 0.6-1.1 0.9-1.7 0.5-0.6-0.3-0.8-1.1-0.5-1.7 0.4-0.6 1.1-0.8 1.7-0.4 0.6 0.3 0.8 1 0.5 1.6z"/><path class="a" d="m143.3 47c-0.3 0.6-1.1 0.8-1.7 0.5-0.6-0.4-0.8-1.1-0.4-1.7 0.3-0.6 1-0.8 1.6-0.5 0.6 0.3 0.8 1.1 0.5 1.7z"/><path class="a" d="m137.6 43.8c-0.3 0.6-1.1 0.8-1.7 0.5-0.6-0.3-0.8-1.1-0.4-1.7 0.3-0.6 1-0.8 1.6-0.5 0.6 0.4 0.8 1.1 0.5 1.7z"/><path class="a" d="m131.9 40.7c-0.3 0.6-1.1 0.8-1.7 0.5-0.6-0.4-0.8-1.1-0.4-1.7 0.3-0.6 1-0.8 1.6-0.5 0.6 0.3 0.8 1.1 0.5 1.7z"/><path class="a" d="m126.2 37.5c-0.3 0.6-1.1 0.8-1.7 0.5-0.6-0.3-0.8-1.1-0.4-1.7 0.3-0.6 1-0.8 1.6-0.5 0.6 0.4 0.8 1.1 0.5 1.7z"/><path class="a" d="m120.5 34.4c-0.3 0.5-1.1 0.8-1.7 0.4-0.6-0.3-0.8-1-0.4-1.6 0.3-0.6 1-0.9 1.6-0.5 0.6 0.3 0.8 1.1 0.5 1.7z"/><path class="a" d="m114.8 31.2c-0.3 0.6-1.1 0.8-1.7 0.5-0.6-0.3-0.8-1.1-0.4-1.7 0.3-0.6 1.1-0.8 1.6-0.5 0.6 0.3 0.8 1.1 0.5 1.7z"/><path class="a" d="m109.1 28c-0.3 0.6-1.1 0.9-1.7 0.5-0.5-0.3-0.8-1.1-0.4-1.7 0.3-0.6 1.1-0.8 1.6-0.4 0.6 0.3 0.9 1 0.5 1.6z"/><path class="a" d="m103.4 24.9c-0.3 0.6-1.1 0.8-1.7 0.5-0.5-0.4-0.8-1.1-0.4-1.7 0.3-0.6 1.1-0.8 1.7-0.5 0.5 0.3 0.8 1.1 0.4 1.7z"/><path class="a" d="m97.7 21.7c-0.3 0.6-1.1 0.8-1.6 0.5-0.6-0.3-0.9-1.1-0.5-1.7 0.3-0.6 1.1-0.8 1.7-0.5 0.5 0.4 0.8 1.1 0.4 1.7z"/><path class="a" d="m92 18.6c-0.3 0.6-1.1 0.8-1.6 0.5-0.6-0.4-0.8-1.1-0.5-1.7 0.3-0.6 1.1-0.8 1.7-0.5 0.6 0.3 0.8 1.1 0.4 1.7z"/><path class="a" d="m86.3 15.4c-0.3 0.6-1 0.8-1.6 0.5-0.6-0.3-0.8-1.1-0.5-1.7 0.3-0.6 1.1-0.8 1.7-0.5 0.6 0.4 0.8 1.1 0.4 1.7z"/><path class="a" d="m80.6 12.2c-0.3 0.6-1 0.9-1.6 0.5-0.6-0.3-0.8-1-0.5-1.6 0.3-0.6 1.1-0.9 1.7-0.5 0.6 0.3 0.8 1 0.4 1.6z"/><path class="a" d="m74.9 9.1c-0.3 0.6-1 0.8-1.6 0.5-0.6-0.4-0.8-1.1-0.5-1.7 0.3-0.6 1.1-0.8 1.7-0.5 0.6 0.3 0.8 1.1 0.4 1.7z"/><path class="a" d="m69.2 5.9c-0.3 0.6-1 0.8-1.6 0.5-0.6-0.3-0.8-1.1-0.5-1.7 0.3-0.6 1.1-0.8 1.7-0.4 0.6 0.3 0.8 1 0.4 1.6z"/><path class="a" d="m63.5 2.8c-0.3 0.6-1 0.8-1.6 0.5-0.6-0.4-0.8-1.1-0.5-1.7 0.3-0.6 1.1-0.8 1.7-0.5 0.6 0.3 0.8 1.1 0.4 1.7z"/></g></g></svg>