<svg xmlns="http://www.w3.org/2000/svg" width="295" height="222.986" viewBox="0 0 295 222.986">
  <g id="Group_2802" data-name="Group 2802" transform="translate(-815 -299)">
    <g id="send-mail" transform="translate(853 299.014)">
      <path id="Path_4548" data-name="Path 4548" d="M23.742,61H16.581a3.581,3.581,0,1,0,0,7.161h7.161a3.581,3.581,0,1,0,0-7.161Z" transform="translate(30.968 154.811)"/>
      <path id="Path_4549" data-name="Path 4549" d="M219.419,127.258H208.677V38.1a11.156,11.156,0,0,0-11.1-11.1H183.613a3.588,3.588,0,0,0-3.581,3.581,3.383,3.383,0,0,0,3.581,3.581h13.965a4.3,4.3,0,0,1,4.3,3.939v89.158H129.9a7.182,7.182,0,0,0-7.161,7.161H101.258a7.182,7.182,0,0,0-7.161-7.161H22.484V102.194A3.383,3.383,0,0,0,18.9,98.613a3.383,3.383,0,0,0-3.581,3.581v25.065H4.581A3.383,3.383,0,0,0,1,130.839a24.331,24.331,0,0,0,7.161,17.545,24.642,24.642,0,0,0,17.9,7.519h7.519a3.581,3.581,0,1,0,0-7.161H26.065a16.8,16.8,0,0,1-12.532-5.371,17.2,17.2,0,0,1-5.013-8.952H94.1a7.182,7.182,0,0,0,7.161,7.161h21.484a7.182,7.182,0,0,0,7.161-7.161h85.577a18.01,18.01,0,0,1-17.545,14.323H69.032a3.581,3.581,0,1,0,0,7.161h128.9A24.91,24.91,0,0,0,223,130.839,3.383,3.383,0,0,0,219.419,127.258ZM18.9,91.452a3.383,3.383,0,0,0,3.581-3.581V38.1a4.064,4.064,0,0,1,4.3-3.939H69.032a3.588,3.588,0,0,0,3.581-3.581A3.383,3.383,0,0,0,69.032,27H26.423a11.156,11.156,0,0,0-11.1,11.1V87.871A3.383,3.383,0,0,0,18.9,91.452Z" transform="translate(0 67.069)" fill="#00065a"/>
      <path id="Path_4550" data-name="Path 4550" d="M20.568,79.388l34.016,12.89,21.484,35.806a3.782,3.782,0,0,0,3.223,1.79,3.867,3.867,0,0,0,2.865-1.432l15.039-20.052,37.955,14.323c1.79.716,3.939-.716,4.655-2.148L182.771,5.985c0-.358.358-2.506-1.074-3.939a3.5,3.5,0,0,0-3.939-.716L94.687,39.285a3.527,3.527,0,0,0,2.865,6.445l49.055-22.2-88.442,62.3L31.31,75.808,80.723,53.25A3.527,3.527,0,0,0,77.858,46.8L20.568,72.943a3.441,3.441,0,0,0-2.148,3.223,3.627,3.627,0,0,0,2.148,3.223Zm62.3,36.165v-12.89l7.519,2.865Zm88.084-98.11-36.523,97.035L86.094,96.217l84.861-78.774ZM138.013,38.211,76.784,95.143A2.991,2.991,0,0,0,75.71,97.65V113.4L62.461,91.563l75.552-53.352ZM31.668,164.608l28.645-28.645A3.545,3.545,0,0,0,55.3,130.95L26.655,159.595a3.461,3.461,0,0,0,0,5.013C28.445,166.756,30.952,165.324,31.668,164.608Zm7.877-55.142a3.461,3.461,0,0,0-5.013,0L11.974,130.95a3.461,3.461,0,0,0,0,5.013,3.37,3.37,0,0,0,5.013,0l22.558-21.484a3.461,3.461,0,0,0,0-5.013Z" transform="translate(25.548)" fill="#6d2ef1"/>
      <path id="Path_4551" data-name="Path 4551" d="M58.571,36.374a3.461,3.461,0,0,0-5.013,0L32.074,56.784a3.461,3.461,0,0,0,0,5.013,3.747,3.747,0,0,0,5.013,0l21.484-20.41C60,40.313,60,37.806,58.571,36.374Zm51.2,55.142h-3.581a3.581,3.581,0,1,0,0,7.161h7.161a3.383,3.383,0,0,0,3.581-3.581V80.774a3.581,3.581,0,1,0-7.161,0Zm3.581-21.484a3.383,3.383,0,0,0,3.581-3.581V59.29a3.581,3.581,0,1,0-7.161,0v7.161A3.383,3.383,0,0,0,113.355,70.032Z" transform="translate(77.419 88.488)"/>
      <circle id="Ellipse_628" data-name="Ellipse 628" cx="3.5" cy="3.5" r="3.5" transform="translate(87 179.986)"/>
      <ellipse id="Ellipse_629" data-name="Ellipse 629" cx="4" cy="3.5" rx="4" ry="3.5" transform="translate(108 179.986)"/>
      <circle id="Ellipse_630" data-name="Ellipse 630" cx="3.5" cy="3.5" r="3.5" transform="translate(130 179.986)"/>
    </g>
    <circle id="Ellipse_631" data-name="Ellipse 631" cx="6.5" cy="6.5" r="6.5" transform="translate(815 364)" fill="#6d2ef1" opacity="0.5"/>
    <circle id="Ellipse_634" data-name="Ellipse 634" cx="6.5" cy="6.5" r="6.5" transform="translate(1090 425)" fill="#6d2ef1" opacity="0.5"/>
    <circle id="Ellipse_633" data-name="Ellipse 633" cx="3.5" cy="3.5" r="3.5" transform="translate(831 450)" fill="#6d2ef1" opacity="0.5"/>
    <circle id="Ellipse_632" data-name="Ellipse 632" cx="3.5" cy="3.5" r="3.5" transform="translate(1103 354)" fill="#6d2ef1" opacity="0.5"/>
    <text id="_" data-name="+" transform="translate(891 325)" fill="#6d2ef1" font-size="25" font-family="Poppins-Bold, Poppins" font-weight="700" opacity="0.5"><tspan x="0" y="0">+</tspan></text>
  </g>
</svg>
