<svg xmlns="http://www.w3.org/2000/svg" width="71.595" height="80.398" viewBox="0 0 71.595 80.398">
  <path id="help-file" d="M43.118,42.2h-20.1a4.02,4.02,0,0,0,0,8.04h20.1a4.02,4.02,0,0,0,0-8.04Zm4.02,32.159H14.979a4.02,4.02,0,0,1-4.02-4.02V14.06a4.02,4.02,0,0,1,4.02-4.02h20.1V22.1a12.06,12.06,0,0,0,12.06,12.06H59.2v4.02a4.02,4.02,0,0,0,8.04,0v-8.04a.563.563,0,0,0,0-.241,3.457,3.457,0,0,0-.281-1.085v-.362a4.3,4.3,0,0,0-.764-1.126h0L42.073,3.206h0a4.02,4.02,0,0,0-1.166-.764h-.322A3.538,3.538,0,0,0,39.3,2H15.18A12.06,12.06,0,0,0,3.12,14.06V70.339A12.06,12.06,0,0,0,15.18,82.4H47.339a4.02,4.02,0,0,0,0-8.04Zm-4.02-58.651L53.49,26.12H47.138a4.02,4.02,0,0,1-4.02-4.02ZM65.509,75.524a6.351,6.351,0,0,0-.6-.482,4.341,4.341,0,0,0-1.447-.6,4.016,4.016,0,1,0,2.935,2.412A4.783,4.783,0,0,0,65.509,75.524ZM43.118,58.279h-20.1a4.02,4.02,0,1,0,0,8.04h20.1a4.02,4.02,0,1,0,0-8.04Zm19.537-12.06A12.06,12.06,0,0,0,52.2,52.249a4.034,4.034,0,1,0,6.995,4.02,4.02,4.02,0,1,1,3.457,6.03,4.02,4.02,0,1,0,0,8.04,12.06,12.06,0,1,0,0-24.12ZM23.019,34.159h4.02a4.02,4.02,0,0,0,0-8.04h-4.02a4.02,4.02,0,0,0,0,8.04Z" transform="translate(-3.12 -2)" fill="#e4eaef"/>
</svg>
