<svg xmlns="http://www.w3.org/2000/svg" width="25.547" height="31.569" viewBox="0 0 25.547 31.569">
  <g id="idea_1_" data-name="idea (1)" transform="translate(-5.77 -1)">
    <path id="Path_4611" data-name="Path 4611" d="M5.77,22.995v8.163a.631.631,0,0,0,.631.631h4.618a.624.624,0,0,0,.617-.558,31.144,31.144,0,0,0,6.5,1.339c.118,0,.229,0,.331-.014,3.088-.274,11.073-4.387,11.371-4.542a2.08,2.08,0,0,0-1.2-3.984l-3.824,1.985a14.972,14.972,0,0,1-2.4.356,1.435,1.435,0,0,0-.368-.352c-5.021-2.8-5.1-2.886-5.332-2.886H11.65v-.139a.631.631,0,0,0-.631-.631H6.4A.631.631,0,0,0,5.77,22.995Zm5.88,1.4h4.9L21.4,27.112a2.868,2.868,0,0,1-.364.908L17.114,26.88a.631.631,0,0,0-.353,1.212l3.951,1.147a1.258,1.258,0,0,0,.469.088c.736,0,1.2-1.026,1.387-1.7a16.25,16.25,0,0,0,2.7-.431c.07-.023.587-.3,3.867-2a.829.829,0,0,1,.922.823c0,.557-.4.7-.755.853-.08.042-8.1,4.174-10.942,4.426-1.324.121-4.948-.856-6.706-1.379V24.4Zm-4.618-.77h3.355v6.9H7.032ZM13.37,10.589a6.345,6.345,0,0,0,1.325,3.9A12.819,12.819,0,0,1,16.467,19.4a.631.631,0,0,0,.622.525h5.374a.631.631,0,0,0,.623-.53,12.127,12.127,0,0,1,1.689-4.808,6.4,6.4,0,1,0-11.4-4Zm6.988-5.107A5.138,5.138,0,0,1,23.789,13.8a12.486,12.486,0,0,0-1.854,4.864h-1.53V13.7l1.222-1.222a.631.631,0,0,0-.893-.893l-.961.961-.961-.961a.631.631,0,0,0-.893.893L19.142,13.7v4.962H17.613A13.287,13.287,0,0,0,15.7,13.721a5.1,5.1,0,0,1-1.063-3.132A5.15,5.15,0,0,1,20.358,5.481Zm.047-2.169V1.632a.631.631,0,0,0-1.263,0V3.313a.631.631,0,0,0,1.263,0Z" transform="translate(0)" fill="#6d2ef1"/>
    <path id="Path_4612" data-name="Path 4612" d="M16.611,5.288a.631.631,0,0,0-.893.893L16.77,7.233a.631.631,0,1,0,.893-.893ZM28.066,16.743a.631.631,0,1,0-.893.893l1.052,1.052a.631.631,0,1,0,.893-.893ZM13.575,11.356a.631.631,0,0,0,0,1.263h1.681a.631.631,0,1,0,0-1.263Zm17.687,1.263a.631.631,0,1,0,0-1.263H29.581a.631.631,0,1,0,0,1.263ZM16.77,16.743l-1.052,1.052a.631.631,0,1,0,.893.893l1.052-1.052a.631.631,0,1,0-.893-.893ZM28.225,5.288,27.173,6.34a.631.631,0,0,0,.893.893l1.052-1.052a.631.631,0,0,0-.893-.893Zm-7.6,17.159a.631.631,0,0,0,0,1.263h3.586a.631.631,0,1,0,0-1.263Z" transform="translate(-2.644 -1.512)" fill="#6d2ef1"/>
  </g>
</svg>
