<svg xmlns="http://www.w3.org/2000/svg" width="74.532" height="74.547" viewBox="0 0 74.532 74.547">
  <path id="invoice" d="M29.95,33.687h9.316a3.727,3.727,0,1,0,0-7.453H35.539V24.37a3.727,3.727,0,1,0-7.453,0v2.05A9.316,9.316,0,0,0,29.95,44.867h3.727a1.863,1.863,0,1,1,0,3.727H24.36a3.727,3.727,0,0,0,0,7.453h3.727V57.91a3.727,3.727,0,1,0,7.453,0V55.86a9.317,9.317,0,0,0-1.863-18.447H29.95a1.863,1.863,0,0,1,0-3.727Zm42.856,5.59H61.626V5.737A3.727,3.727,0,0,0,56.036,2.5l-11.18,6.41L33.676,2.5a3.727,3.727,0,0,0-3.727,0L18.77,8.905,7.59,2.5A3.727,3.727,0,0,0,2,5.737V65.363a11.18,11.18,0,0,0,11.18,11.18H65.352a11.18,11.18,0,0,0,11.18-11.18V43A3.727,3.727,0,0,0,72.805,39.277ZM13.18,69.09a3.727,3.727,0,0,1-3.727-3.727V12.184l7.453,4.248a4.025,4.025,0,0,0,3.727,0l11.18-6.41,11.18,6.41a4.025,4.025,0,0,0,3.727,0l7.453-4.248V65.363a11.18,11.18,0,0,0,.671,3.727Zm55.9-3.727a3.727,3.727,0,0,1-7.453,0V46.73h7.453Z" transform="translate(-2 -1.996)" fill="#e4eaef"/>
</svg>
