<svg id="Capa_1" enable-background="new 0 0 512 512" height="512" viewBox="0 0 512 512" width="512" xmlns="http://www.w3.org/2000/svg" fill="#6d2ef1"><g><path d="m497 91c8.284 0 15-6.716 15-15s-6.716-15-15-15h-15v-15c0-8.284-6.716-15-15-15s-15 6.716-15 15v15h-392v-15c0-8.284-6.716-15-15-15s-15 6.716-15 15v15h-15c-8.284 0-15 6.716-15 15s6.716 15 15 15h15v330h-15c-8.284 0-15 6.716-15 15s6.716 15 15 15h15v15c0 8.284 6.716 15 15 15s15-6.716 15-15v-15h392v15c0 8.284 6.716 15 15 15s15-6.716 15-15v-15h15c8.284 0 15-6.716 15-15s-6.716-15-15-15h-15v-330zm-45 330h-392v-330h392z"/><path d="m94.477 205.603 150 180c2.903 3.466 7.178 5.397 11.523 5.397 4.544 0 8.791-2.109 11.523-5.397l150-180c4.967-5.96 4.569-14.724-.917-20.209l-60-60c-2.812-2.814-6.627-4.394-10.606-4.394h-180c-3.979 0-7.794 1.58-10.606 4.393l-60 60c-5.487 5.486-5.884 14.25-.917 20.21zm182.253-54.603 15 30h-71.46l15-30zm-59.918 60h78.377l-39.189 117.566zm110 0h47.163l-78.604 94.325zm-141.624 0 31.442 94.325-78.604-94.325zm184.599-30h-44.517l-15-30h29.517zm-197.574-30h29.517l-15 30h-44.517z"/></g></svg>