<svg version="1.2" xmlns="http://www.w3.org/2000/svg" viewBox="0 0 74 136" width="74" height="136"><defs><clipPath clipPathUnits="userSpaceOnUse" id="cp1"><path d="m-800-105h965v3333h-965z"/></clipPath></defs><style>.a{fill:#fff}</style><g clip-path="url(#cp1)"><g style="opacity:.5"><path fill-rule="evenodd" class="a" d="m69 37.3l0.2 4c-4.9-9-13.3-15.7-23.4-18.3q-1.3-0.3-2.6-0.6l1.5-1.6q0.8 0.2 1.5 0.3c9.5 2.5 17.5 8.3 22.8 16.2zm-5 19.6c1.1 3.3 2 6.7 3 9.9 1.3 4.6 2.5 9 4.1 13l0.3 5.4c-2.7-5.3-4.5-11.5-6.3-17.9-0.9-3.2-1.9-6.6-3-9.8-4-11.9-13.7-21-26-24.2q-1.2-0.3-2.5-0.6l1.5-1.6q0.7 0.2 1.5 0.4c12.9 3.3 23.1 12.8 27.4 25.4zm-4.8 5.2c1.1 3.3 2 6.6 3 9.9 2.5 8.8 4.9 17.1 9.7 23.2l0.2 3.1c-6.3-6.5-9-15.9-11.8-25.9-0.9-3.2-1.9-6.5-3-9.7-4-12-13.7-21-26-24.2q-1.3-0.3-2.5-0.6l1.5-1.6q0.7 0.1 1.4 0.3c13 3.4 23.2 12.9 27.5 25.5zm9.6-10.3q0.6 1.7 1.1 3.4l0.4 8.3q-0.2-0.7-0.4-1.4c-0.9-3.2-1.9-6.5-2.9-9.8-4.1-11.9-13.8-20.9-26.1-24.1q-1.2-0.3-2.5-0.6l1.5-1.7q0.7 0.2 1.5 0.4c12.9 3.4 23.1 12.9 27.4 25.5zm-28.9 31c1.1 3.2 2.1 6.6 3 9.8 3 10.4 5.8 20.2 12.6 26.2 4.7 4.3 11.1 6.5 18 8.2l0.1 2c-4.3-1.1-8.4-2.3-12.2-4l-13.2-12.4c-3.2-5.7-5.2-12.4-7.2-19.5-0.9-3.2-1.8-6.6-2.9-9.8-4.1-11.9-13.8-21-26.1-24.1q-1.2-0.4-2.5-0.7l1.5-1.6q0.7 0.2 1.5 0.4c12.9 3.3 23.2 12.9 27.4 25.5zm-4.8 5.1c1.1 3.3 2.1 6.6 3 9.9 0.7 2.5 1.4 5 2.2 7.4l-2.8-2.6q-0.7-2.1-1.3-4.3c-0.9-3.3-1.9-6.6-2.9-9.8-4.1-12-13.8-21-26.1-24.2q-1.2-0.3-2.5-0.6l1.5-1.6q0.7 0.2 1.5 0.4c12.9 3.3 23.1 12.8 27.4 25.4zm33.3-62.2l0.1 2.8c-4.7-5.1-10.9-8.8-17.9-10.6q-1.3-0.4-2.6-0.7l1.5-1.6q0.8 0.2 1.5 0.4c6.7 1.7 12.6 5.1 17.4 9.7zm-38.1 67.4q0.6 2 1.2 4l-2.8-2.7q-0.1-0.4-0.3-0.7c-4-12-13.7-21-26-24.2q-0.3-0.1-0.6-0.2l-1.3-1.1 0.9-0.9q0.7 0.1 1.4 0.3c13 3.4 23.2 12.9 27.5 25.5zm35.2-92.6q0.8 0.2 1.7 0.5l0.1 2q-1.1-0.3-2.3-0.6-1.2-0.4-2.5-0.7l1.5-1.6q0.7 0.2 1.5 0.4zm2 7.6l0.1 2.2q-3.5-1.7-7.4-2.8-1.3-0.3-2.5-0.6l1.5-1.6q0.7 0.2 1.4 0.3 3.6 1 6.9 2.5zm6.4 127.2q-0.9-0.2-1.8-0.4l-2.8-2.6q2.2 0.5 4.5 1zm-24.4-62.9c1.1 3.3 2.1 6.7 3 9.9 3 10.4 5.8 20.1 12.6 26.2 2.2 2 4.9 3.6 7.7 4.8l0.1 2.2c-3.3-1.4-6.4-3.2-9.1-5.6q-0.2-0.1-0.4-0.3c-6.9-6.5-9.8-16.4-12.7-26.8-1-3.2-1.9-6.6-3-9.8-4-11.9-13.8-21-26-24.2q-1.3-0.3-2.6-0.6l1.5-1.6q0.8 0.2 1.5 0.4c12.9 3.3 23.2 12.8 27.4 25.4zm4.9-5.1c1.1 3.2 2 6.6 2.9 9.8 3 10.4 5.8 20.2 12.6 26.3q1.2 1 2.5 1.9l0.2 2.4q-2.1-1.3-4-2.9-0.2-0.2-0.4-0.4c-6.9-6.5-9.7-16.3-12.7-26.8-0.9-3.2-1.9-6.5-3-9.8-4-11.9-13.7-20.9-26-24.1q-1.3-0.3-2.5-0.6l1.5-1.7q0.7 0.2 1.4 0.4c12.9 3.4 23.2 12.9 27.5 25.5zm13.5-51l0.1 2.4c-3.7-2.8-8-4.8-12.6-6q-1.3-0.3-2.6-0.6l1.5-1.6q0.8 0.1 1.5 0.3c4.4 1.2 8.5 3 12.1 5.5zm-23.2 61.3c1.1 3.3 2.1 6.6 3 9.9 3 10.3 5.8 20.1 12.6 26.2 3.5 3.2 8 5.2 12.9 6.7l0.1 2c-5.4-1.6-10.3-3.7-14.3-7.3q-0.2-0.2-0.4-0.4c-6.9-6.4-9.8-16.3-12.8-26.7-0.9-3.3-1.8-6.6-2.9-9.8-4.1-12-13.8-21-26-24.2q-1.3-0.3-2.6-0.6l1.5-1.6q0.8 0.2 1.5 0.3c12.9 3.4 23.2 12.9 27.4 25.5z"/></g></g></svg>