<svg id="search" xmlns="http://www.w3.org/2000/svg" width="85.456" height="85.266" viewBox="0 0 85.456 85.266">
  <path id="Path_4544" data-name="Path 4544" d="M55.955,70.61V67.946a15.987,15.987,0,1,1,0-31.974V33.307H58.62V18.652a2.657,2.657,0,0,0-.781-1.884L41.852.781A2.657,2.657,0,0,0,39.968,0H7.994A7.994,7.994,0,0,0,0,7.994V77.272a8,8,0,0,0,7.994,7.994H50.626a8,8,0,0,0,7.994-7.994V70.61ZM38.865,5.329H7.994A2.665,2.665,0,0,0,5.329,7.994V77.272a2.657,2.657,0,0,0,2.665,2.665H50.626a2.657,2.657,0,0,0,2.665-2.665V73.11a21.319,21.319,0,0,1,0-42.3V19.755Z" transform="translate(0 0)" fill="#e4eaef" fill-rule="evenodd"/>
  <path id="Path_4545" data-name="Path 4545" d="M49.3,21.316a2.67,2.67,0,0,0,1.884-4.548L35.194.78a2.665,2.665,0,0,0-4.548,1.884V13.322a7.994,7.994,0,0,0,7.994,7.994ZM6.665,26.645h7.994a2.665,2.665,0,1,0,0-5.329H6.665a2.665,2.665,0,1,0,0,5.329Zm21.316,5.329H6.665a2.665,2.665,0,1,0,0,5.329H27.981a2.665,2.665,0,1,0,0-5.329Zm-2.665-5.329h2.665a2.665,2.665,0,0,0,0-5.329H25.316a2.665,2.665,0,1,0,0,5.329Zm23.981,4A21.316,21.316,0,1,0,70.614,51.958,21.326,21.326,0,0,0,49.3,30.642Zm0,5.329A15.987,15.987,0,1,1,33.31,51.958,16,16,0,0,1,49.3,35.971Z" transform="translate(6.658 0)" fill="#e4eaef" fill-rule="evenodd"/>
  <path id="Path_4546" data-name="Path 4546" d="M25.282,28.978,40.123,43.82a2.665,2.665,0,0,0,3.77-3.768L29.049,25.211a2.664,2.664,0,1,0-3.768,3.768Z" transform="translate(40.783 40.665)" fill="#e4eaef" fill-rule="evenodd"/>
</svg>
