<svg xmlns="http://www.w3.org/2000/svg" width="124" height="123.939" viewBox="0 0 124 123.939">
  <g id="selection" transform="translate(0 -0.125)">
    <path id="Path_4414" data-name="Path 4414" d="M249.512,18.522V3.756a3.631,3.631,0,0,0-7.262,0V18.522a3.631,3.631,0,0,0,7.262,0Z" transform="translate(-183.609)" fill="#6d2ef1"/>
    <path id="Path_4415" data-name="Path 4415" d="M386.247,72.483a3.631,3.631,0,0,0-5.135,0l-10.27,10.27a3.631,3.631,0,0,0,5.135,5.135l10.27-10.27A3.631,3.631,0,0,0,386.247,72.483Z" transform="translate(-280.266 -54.036)" fill="#6d2ef1"/>
    <path id="Path_4416" data-name="Path 4416" d="M439.647,241.125H424.881a3.631,3.631,0,1,0,0,7.262h14.766a3.631,3.631,0,1,0,0-7.262Z" transform="translate(-319.278 -182.661)" fill="#6d2ef1"/>
    <path id="Path_4417" data-name="Path 4417" d="M375.978,369.468a3.631,3.631,0,0,0-5.135,5.135l10.27,10.27a3.631,3.631,0,0,0,5.135-5.135Z" transform="translate(-280.267 -279.13)" fill="#6d2ef1"/>
    <path id="Path_4418" data-name="Path 4418" d="M73.858,72.483a3.631,3.631,0,0,0,0,5.135l10.27,10.27a3.631,3.631,0,0,0,5.135-5.135l-10.27-10.27A3.631,3.631,0,0,0,73.858,72.483Z" transform="translate(-55.173 -54.036)" fill="#6d2ef1"/>
    <path id="Path_4419" data-name="Path 4419" d="M1.064,204.44l10.27,10.27a3.631,3.631,0,0,0,5.135,0l10.846-10.846,10.362,10.362a3.631,3.631,0,0,0,5.959-1.272l10.5-27.508A32.649,32.649,0,1,0,30.6,161.641l-27.923,10.3a3.631,3.631,0,0,0-1.311,5.974L11.91,188.459,1.064,199.305a3.631,3.631,0,0,0,0,5.135Zm50.379-50.489c0-.049,0-.1,0-.147A10.893,10.893,0,1,1,62.333,164.7c-.09,0-.18,0-.27-.006l3.662-9.592a3.631,3.631,0,0,0-4.649-4.7ZM36.916,153.8a25.391,25.391,0,1,1,19.835,24.8l2.631-6.89a18.168,18.168,0,1,0-14.992-15.163L37.474,159.1A25.506,25.506,0,0,1,36.916,153.8Zm-17.3,37.222a3.631,3.631,0,0,0,0-5.135l-9.1-9.1c31.875-11.634,44.114-16.274,45.577-16.814L38.85,205.13l-8.968-8.968a3.631,3.631,0,0,0-5.135,0L13.9,207.008l-5.135-5.135Z" transform="translate(0 -91.71)" fill="#6d2ef1"/>
  </g>
</svg>
