<svg xmlns="http://www.w3.org/2000/svg" width="78.646" height="86.946" viewBox="0 0 78.646 86.946">
  <path id="sprout" d="M41.765,83.147V81.328a68.671,68.671,0,0,1,7.388-30.981l.409.028A31.282,31.282,0,0,0,82.729,15.723L81.695,6.384a3.534,3.534,0,0,0-4.136-3.078L62.4,6.065A27.456,27.456,0,0,0,43.274,46.356a75.771,75.771,0,0,0-4.855,11.58A43.8,43.8,0,0,0,32.5,47.785,24.115,24.115,0,0,0,8.443,22.049c-4.545,0-4.272,3.2-4.089,4.639l5.4,16.2A15.472,15.472,0,0,0,27.684,53.1,36.739,36.739,0,0,1,34.72,74.72v8.427H21.791a3.525,3.525,0,1,0,0,7.05h32.9a3.525,3.525,0,0,0,0-7.05Zm-12.737-30.6-.009,0,.009.047v-.047ZM12.767,29.662A17.079,17.079,0,0,1,25.5,46.337a8.422,8.422,0,0,1-9.071-5.677ZM53.233,43.344A24.232,24.232,0,0,0,75.721,16.5l-.62-5.579L63.657,13A20.416,20.416,0,0,0,47.739,38.865a76.3,76.3,0,0,1,9.155-11.082c4.841-4.112,7.863,2.106,4.987,4.987a68.435,68.435,0,0,0-8.648,10.575Z" transform="translate(-4.273 -3.25)" fill="#e4eaef" fill-rule="evenodd"/>
</svg>
