<svg xmlns="http://www.w3.org/2000/svg" width="78.861" height="78.861" viewBox="0 0 78.861 78.861">
  <g id="star" transform="translate(-2.5 -2.5)">
    <path id="Path_4542" data-name="Path 4542" d="M51.031,25.12,40.412,23.579l-4.75-9.628a2.76,2.76,0,0,0-4.952,0l-4.75,9.628L15.342,25.12a2.752,2.752,0,0,0-1.522,4.695L21.5,37.3,19.688,47.879a2.755,2.755,0,0,0,4,2.9l9.5-5.007,9.5,4.988a2.656,2.656,0,0,0,1.284.312,2.743,2.743,0,0,0,1.614-.532,2.79,2.79,0,0,0,1.1-2.7L44.869,37.26l7.684-7.483a2.72,2.72,0,0,0-1.522-4.658ZM39.991,34.363A2.729,2.729,0,0,0,39.2,36.8l1.119,6.511-5.85-3.081a2.8,2.8,0,0,0-2.568,0l-5.85,3.081L27.171,36.8a2.8,2.8,0,0,0-.789-2.439l-4.732-4.6,6.529-.954a2.759,2.759,0,0,0,2.072-1.5l2.934-5.924L36.1,27.3a2.759,2.759,0,0,0,2.072,1.5l6.529.954-4.713,4.6Z" transform="translate(8.744 8.265)" fill="#e4eaef"/>
    <path id="Path_4543" data-name="Path 4543" d="M41.931,2.5A39.431,39.431,0,1,0,81.361,41.931,39.487,39.487,0,0,0,41.931,2.5Zm0,73.359A33.929,33.929,0,1,1,75.859,41.931,33.969,33.969,0,0,1,41.931,75.859Z" fill="#e4eaef"/>
  </g>
</svg>
