<svg id="timer" xmlns="http://www.w3.org/2000/svg" width="34" height="34" viewBox="0 0 34 34">
  <path id="Path_4609" data-name="Path 4609" d="M0,0H34V34H0Z" fill="none"/>
  <path id="Path_4610" data-name="Path 4610" d="M18.585,1H12.918a1.417,1.417,0,0,0,0,2.833h5.667a1.417,1.417,0,1,0,0-2.833ZM15.751,19.417A1.421,1.421,0,0,0,17.168,18V12.333a1.417,1.417,0,1,0-2.833,0V18A1.421,1.421,0,0,0,15.751,19.417Zm9.959-9.364L26.773,8.99a1.407,1.407,0,0,0,0-1.983l-.014-.014a1.407,1.407,0,0,0-1.983,0L23.713,8.055a12.7,12.7,0,0,0-7.962-2.8A12.892,12.892,0,0,0,3,17.66,12.752,12.752,0,1,0,25.71,10.052ZM15.751,27.917A9.917,9.917,0,1,1,25.668,18,9.909,9.909,0,0,1,15.751,27.917Z" transform="translate(1.249 0.417)" fill="#6d2ef1"/>
</svg>
