<svg xmlns="http://www.w3.org/2000/svg" width="152" height="146.372" viewBox="0 0 152 146.372">
  <g id="time-management" transform="translate(0 -3.11)">
    <path id="Path_4555" data-name="Path 4555" d="M76.031,86.011l-2.983,18.195a3.619,3.619,0,0,0,.7,2.788l6.333,8.253a3.619,3.619,0,0,0,5.742,0l6.333-8.253a3.619,3.619,0,0,0,.7-2.788l-2.983-18.2a30.563,30.563,0,0,1-3.568.609l2.98,18.172-6.333,8.253-6.333-8.253L79.6,86.62a30.563,30.563,0,0,1-3.568-.609Z" transform="translate(-6.952 -7.895)" fill="#6d2ef1"/>
    <path id="Path_4556" data-name="Path 4556" d="M100.336,69.225c.039-.038.067-.083.1-.124a27.088,27.088,0,0,0,0-38.136c-.035-.042-.063-.086-.1-.125s-.084-.068-.126-.1a27.088,27.088,0,0,0-38.134,0c-.042.035-.087.063-.126.1s-.067.083-.1.125a27.088,27.088,0,0,0,0,38.136c.035.041.063.086.1.124s.084.068.125.1a27.088,27.088,0,0,0,38.136,0C100.251,69.292,100.3,69.264,100.336,69.225Zm-2.559-5.117a1.809,1.809,0,1,0-2.559,2.559l1.226,1.226A23.414,23.414,0,0,1,82.952,73.48V71.747a1.81,1.81,0,0,0-3.619,0V73.48a23.413,23.413,0,0,1-13.492-5.588l1.226-1.226a1.809,1.809,0,1,0-2.559-2.559l-1.226,1.226A23.413,23.413,0,0,1,57.7,51.842h1.734a1.81,1.81,0,1,0,0-3.619H57.7a23.413,23.413,0,0,1,5.588-13.492l1.226,1.226A1.809,1.809,0,1,0,67.068,33.4l-1.226-1.226a23.413,23.413,0,0,1,13.492-5.588v1.734a1.81,1.81,0,0,0,3.619,0V26.585a23.413,23.413,0,0,1,13.492,5.588L95.218,33.4a1.809,1.809,0,1,0,2.559,2.559L99,34.731a23.413,23.413,0,0,1,5.588,13.492h-1.734a1.81,1.81,0,1,0,0,3.619h1.734A23.413,23.413,0,0,1,99,65.332Z" transform="translate(-5.143 -1.884)" fill="#393939"/>
    <path id="Path_4557" data-name="Path 4557" d="M97.4,49.89H87.921a5.405,5.405,0,0,0-7.446-3.084L74.589,40.92a1.809,1.809,0,1,0-2.559,2.559l5.887,5.885a5.422,5.422,0,1,0,10,4.144H97.4a1.81,1.81,0,0,0,0-3.619ZM82.81,53.509a1.81,1.81,0,1,1,1.81-1.81A1.81,1.81,0,0,1,82.81,53.509Z" transform="translate(-6.81 -3.55)" fill="#6d2ef1"/>
    <circle id="Ellipse_645" data-name="Ellipse 645" cx="1.81" cy="1.81" r="1.81" transform="translate(0 133.197)" fill="#393939"/>
    <path id="Path_4558" data-name="Path 4558" d="M10.524,146.89H7.81a1.81,1.81,0,0,0,0,3.619h2.714a1.81,1.81,0,0,0,0-3.619Zm134.81,0h-2.714a1.81,1.81,0,1,0,0,3.619h2.714a1.81,1.81,0,0,0,0-3.619Z" transform="translate(-0.571 -13.693)" fill="#393939"/>
    <circle id="Ellipse_646" data-name="Ellipse 646" cx="1.81" cy="1.81" r="1.81" transform="translate(148.381 133.197)" fill="#393939"/>
    <path id="Path_4559" data-name="Path 4559" d="M111.472,151.652h-7.517a1.815,1.815,0,0,0,0,3.619h7.517a1.815,1.815,0,0,0,0-3.619Zm-54.286,0H49.67a1.815,1.815,0,0,0,0,3.619h7.517a1.815,1.815,0,0,0,0-3.619Zm41.48,0H62.476a1.81,1.81,0,1,0,0,3.619H76.9v1.81H69.714a1.81,1.81,0,1,0,0,3.619H92.333a1.81,1.81,0,1,0,0-3.619H84.244v-1.81H98.666a1.81,1.81,0,0,0,0-3.619ZM62.476,122.7v21.714H58.857V122.7a1.81,1.81,0,0,1,3.619,0Zm39.81,0v21.714H98.666V122.7a1.81,1.81,0,0,1,3.619,0Z" transform="translate(-4.571 -11.217)" fill="#6d2ef1"/>
    <path id="Path_4560" data-name="Path 4560" d="M139.857,135.006a1.951,1.951,0,0,1-2.063,1.81H17.063a1.825,1.825,0,1,1,0-3.619H38.6a7.219,7.219,0,0,1-.977-3.619V95.2A39.753,39.753,0,0,1,51.64,64.9a30.949,30.949,0,0,0,2.147,2.911A36.087,36.087,0,0,0,41.238,95.2v34.381a3.618,3.618,0,0,0,3.619,3.619H110a3.618,3.618,0,0,0,3.619-3.619V95.2A36.087,36.087,0,0,0,101.07,67.81a30.948,30.948,0,0,0,2.144-2.913,39.755,39.755,0,0,1,14.024,30.3v34.381a7.219,7.219,0,0,1-.977,3.619h21.533a1.951,1.951,0,0,1,2.063,1.81ZM115.42,39.554a2.714,2.714,0,1,0-2.714-2.714,2.714,2.714,0,0,0,2.714,2.714Zm0-4.071a1.357,1.357,0,1,1-1.357,1.357A1.357,1.357,0,0,1,115.42,35.482ZM138.048,61.72a1.81,1.81,0,1,0,1.81,1.81A1.81,1.81,0,0,0,138.048,61.72Zm0,2.714a.9.9,0,1,1,.9-.9A.9.9,0,0,1,138.048,64.435ZM18.318,5.625a1.81,1.81,0,1,0,1.81,1.81,1.81,1.81,0,0,0-1.81-1.81Zm0,2.714a.9.9,0,1,1,.9-.9.9.9,0,0,1-.9.9ZM121.762,3.11a1.81,1.81,0,1,0,1.81,1.81,1.81,1.81,0,0,0-1.81-1.81Zm0,2.714a.9.9,0,1,1,.9-.9A.9.9,0,0,1,121.762,5.824ZM31.286,56.659a1.81,1.81,0,1,0-1.81,1.81A1.81,1.81,0,0,0,31.286,56.659Zm-2.714,0a.9.9,0,1,1,.9.9.9.9,0,0,1-.9-.9Z" transform="translate(-1.429)" fill="#393939"/>
    <path id="Path_4561" data-name="Path 4561" d="M6.111,41.827l1.345-1.77-.85-.481-.863,1.981H5.715l-.877-1.967-.865.5L5.3,41.814v.028l-2.082-.27v.963l2.1-.269V42.3L3.973,44.022l.807.51.921-2h.027l.85,1.982.892-.509-1.359-1.7v-.028l2.137.254v-.963l-2.137.283v-.028ZM43.495,24.9l-.774.994.465.294.53-1.15h.016l.489,1.141.514-.293-.783-.978V24.9l1.23.147v-.555l-1.23.163v-.016l.774-1.019-.489-.277-.5,1.141h-.016l-.5-1.133-.5.285.767,1v.016l-1.2-.156v.555l1.206-.155V24.9ZM146.9,23.811v-.944l-2.1.278v-.028l1.319-1.735-.833-.472-.847,1.943h-.028l-.86-1.93-.848.487,1.306,1.694v.028l-2.041-.264v.944l2.055-.263v.028l-1.319,1.694.792.5.9-1.959h.027l.833,1.944.875-.5-1.333-1.667v-.028l2.1.25ZM72.69,5.7l1.137-1.5-.718-.407-.73,1.677h-.024l-.743-1.665-.731.419,1.126,1.461V5.71l-1.762-.228V6.3l1.773-.227v.024L70.88,7.554l.683.432L72.342,6.3h.024l.718,1.677.755-.432L72.69,6.1V6.081L74.5,6.3V5.482l-1.808.24Z" transform="translate(-0.307 -0.065)" fill="#6d2ef1"/>
  </g>
</svg>
