<svg xmlns="http://www.w3.org/2000/svg" width="23.272" height="23.272" viewBox="0 0 23.272 23.272">
  <path id="time_1_" data-name="time (1)" d="M11.9.264A11.636,11.636,0,1,0,23.535,11.9,11.656,11.656,0,0,0,11.9.264Zm0,2.115A9.523,9.523,0,1,1,2.379,11.9,9.5,9.5,0,0,1,11.9,2.379Zm-.017,2.1a1.058,1.058,0,0,0-1.047,1.079V11.9a1.058,1.058,0,0,0,.314.748l4.23,4.232a1.057,1.057,0,1,0,1.491-1.5l-3.918-3.918v-5.9a1.058,1.058,0,0,0-1.07-1.079Z" transform="translate(-0.264 -0.264)" fill="#6d2ef1" fill-rule="evenodd"/>
</svg>
