<svg xmlns="http://www.w3.org/2000/svg" width="124.098" height="69.051" viewBox="0 0 124.098 69.051">
  <path id="top-rated" d="M48.246,25.123a.533.533,0,0,1,.153.472L46.888,34.4a4.108,4.108,0,0,0,5.96,4.33l7.91-4.159a.532.532,0,0,1,.5,0l7.91,4.159a4.108,4.108,0,0,0,5.96-4.33l-1.511-8.808a.533.533,0,0,1,.153-.472l6.4-6.238a4.108,4.108,0,0,0-2.276-7.006l-8.843-1.285a.533.533,0,0,1-.4-.292L64.69,2.289a4.108,4.108,0,0,0-7.367,0L53.367,10.3a.533.533,0,0,1-.4.291l-8.843,1.285a4.108,4.108,0,0,0-2.277,7.006ZM44.207,15.78a.505.505,0,0,1,.43-.363l8.843-1.285a4.106,4.106,0,0,0,3.093-2.247l3.955-8.013a.533.533,0,0,1,.956,0l3.955,8.013a4.107,4.107,0,0,0,3.093,2.247l8.844,1.285a.533.533,0,0,1,.3.909l-6.4,6.238A4.107,4.107,0,0,0,70.09,26.2L71.6,35.007a.533.533,0,0,1-.773.562l-7.91-4.159a4.108,4.108,0,0,0-3.823,0l-7.91,4.159a.533.533,0,0,1-.774-.562L51.922,26.2a4.107,4.107,0,0,0-1.181-3.636l-6.4-6.237a.505.505,0,0,1-.135-.546Zm76.627,32.653a3.9,3.9,0,0,0-2.162-6.654l-8.055-1.17a.326.326,0,0,1-.246-.179l-3.6-7.3a3.9,3.9,0,0,0-7,0l-3.6,7.3a.327.327,0,0,1-.245.179l-8.055,1.17a3.9,3.9,0,0,0-2.162,6.654l5.829,5.682a.326.326,0,0,1,.094.289l-1.376,8.023a3.9,3.9,0,0,0,5.66,4.112l7.2-3.788a.326.326,0,0,1,.3,0l7.205,3.788a3.9,3.9,0,0,0,5.66-4.112L114.911,54.4a.326.326,0,0,1,.094-.289Zm-8.324,3.122a3.9,3.9,0,0,0-1.122,3.453l1.376,8.023a.326.326,0,0,1-.473.344l-7.205-3.788a3.9,3.9,0,0,0-3.63,0l-7.2,3.788a.326.326,0,0,1-.474-.344l1.376-8.023a3.9,3.9,0,0,0-1.122-3.453L88.2,45.874a.326.326,0,0,1,.181-.557l8.055-1.17a3.9,3.9,0,0,0,2.937-2.134l3.6-7.3a.326.326,0,0,1,.585,0l3.6,7.3a3.9,3.9,0,0,0,2.937,2.134l8.055,1.17a.326.326,0,0,1,.181.557Zm-105.5,2.56A.326.326,0,0,1,7.1,54.4L5.726,62.427a3.9,3.9,0,0,0,5.66,4.112l7.2-3.788a.326.326,0,0,1,.3,0l7.2,3.788a3.9,3.9,0,0,0,5.66-4.112L30.383,54.4a.326.326,0,0,1,.094-.289l5.829-5.682a3.9,3.9,0,0,0-2.162-6.654l-8.055-1.171a.326.326,0,0,1-.246-.179l-3.6-7.3h0a3.9,3.9,0,0,0-7,0l-3.6,7.3a.326.326,0,0,1-.245.178l-8.055,1.17a3.9,3.9,0,0,0-2.162,6.654ZM3.592,45.539a.3.3,0,0,1,.263-.222l8.055-1.17a3.9,3.9,0,0,0,2.937-2.134l3.6-7.3a.326.326,0,0,1,.585,0l3.6,7.3a3.9,3.9,0,0,0,2.937,2.134l8.055,1.17a.326.326,0,0,1,.181.557l-5.829,5.682a3.9,3.9,0,0,0-1.122,3.453l1.376,8.023a.326.326,0,0,1-.473.344l-7.205-3.788a3.9,3.9,0,0,0-3.631,0l-7.2,3.788a.326.326,0,0,1-.474-.344l1.376-8.023A3.9,3.9,0,0,0,9.5,51.555L3.674,45.874a.3.3,0,0,1-.082-.335Z" transform="translate(1.043 1.001)" fill="#e4eaef" stroke="#e4eaef" stroke-width="2"/>
</svg>
