<svg xmlns="http://www.w3.org/2000/svg" width="29.588" height="46.815" viewBox="0 0 29.588 46.815">
  <g id="XMLID_457_" transform="translate(-94.074)">
    <path id="XMLID_458_" d="M208.6,296.118l2.759-1.451,2.759,1.451-.527-3.073,2.232-2.176-3.085-.448-1.38-2.8-1.38,2.8-3.085.448,2.232,2.176Z" transform="translate(-102.489 -261.291)" fill="#0777fd"/>
    <path id="XMLID_463_" d="M133.229,14.527h6.277L131.55,0h-6.669Z" transform="translate(-27.986)" fill="#0777fd"/>
    <path id="XMLID_469_" d="M112.566,116.385l3.589,6.554h-12.5l-3.807-6.624H94.074V152.48h29.588v-36.1Zm-6.9,15.9,3.2-6.492,3.2,6.492,7.164,1.041-5.184,5.053,1.224,7.135-6.407-3.369-6.407,3.369,1.224-7.135L98.5,133.326Z" transform="translate(0 -105.665)" fill="#0777fd"/>
    <path id="XMLID_470_" d="M261.959,7.973h4.3L270.615,0h-7.843L260.18,4.724Z" transform="translate(-150.898)" fill="#0777fd"/>
  </g>
</svg>
