<svg xmlns="http://www.w3.org/2000/svg" width="130" height="121.875" viewBox="0 0 130 121.875">
  <g id="photo-editing" transform="translate(0 -16)">
    <path id="Path_4407" data-name="Path 4407" d="M126.191,16H3.809A3.809,3.809,0,0,0,0,19.809v91.406a3.809,3.809,0,0,0,3.809,3.809H52.1L47.02,130.258H34.531a3.809,3.809,0,0,0,0,7.617H95.469a3.809,3.809,0,0,0,0-7.617H82.98L77.9,115.023h48.29A3.809,3.809,0,0,0,130,111.215V19.809A3.809,3.809,0,0,0,126.191,16Zm-3.809,76.172H68.809V23.617h53.574ZM61.191,23.617V92.172H7.617V23.617ZM74.95,130.258H55.05l5.078-15.234h9.744ZM7.617,107.406V99.789H122.383v7.617Z" fill="#6d2ef1"/>
    <path id="Path_4408" data-name="Path 4408" d="M80.043,129.32a19.065,19.065,0,0,0,19.043-19.043V102.66a3.809,3.809,0,0,0-3.809-3.809,18.943,18.943,0,0,0-11.426,3.819V98.2a11.426,11.426,0,1,0-7.617,0v4.474a18.943,18.943,0,0,0-11.426-3.819A3.809,3.809,0,0,0,61,102.66v7.617A19.065,19.065,0,0,0,80.043,129.32Zm11.426-22.2v3.156a11.446,11.446,0,0,1-7.617,10.773v-3.156A11.446,11.446,0,0,1,91.469,107.121Zm-11.426-23.5a3.809,3.809,0,1,1-3.809,3.809A3.813,3.813,0,0,1,80.043,83.617Zm-11.426,23.5a11.446,11.446,0,0,1,7.617,10.773v3.156a11.446,11.446,0,0,1-7.617-10.773Z" transform="translate(-45.512 -44.766)" fill="#6d2ef1"/>
    <path id="Path_4409" data-name="Path 4409" d="M307.5,97.736l4.924-4.924,4.924,4.924a3.808,3.808,0,0,0,5.386,0L337.97,82.5a3.809,3.809,0,0,0-5.386-5.386L320.043,89.656l-4.924-4.924a3.808,3.808,0,0,0-5.386,0l-7.617,7.617a3.809,3.809,0,0,0,5.386,5.386Z" transform="translate(-224.574 -44.765)" fill="#6d2ef1"/>
    <ellipse id="Ellipse_558" data-name="Ellipse 558" cx="4" cy="3.5" rx="4" ry="3.5" transform="translate(76 62)" fill="#6d2ef1"/>
    <path id="Path_4410" data-name="Path 4410" d="M380.043,196H364.809a3.809,3.809,0,0,0,0,7.617h15.234a3.809,3.809,0,0,0,0-7.617Z" transform="translate(-269.34 -134.297)" fill="#6d2ef1"/>
    <circle id="Ellipse_559" data-name="Ellipse 559" cx="4" cy="4" r="4" transform="translate(76 77)" fill="#6d2ef1"/>
    <path id="Path_4411" data-name="Path 4411" d="M380.043,256H364.809a3.809,3.809,0,0,0,0,7.617h15.234a3.809,3.809,0,0,0,0-7.617Z" transform="translate(-269.34 -179.063)" fill="#6d2ef1"/>
  </g>
</svg>
