<svg xmlns="http://www.w3.org/2000/svg" width="60" height="60" viewBox="0 0 90 90">
  <g id="Group_3741" data-name="Group 3741" transform="translate(-1204 -1488)">
    <circle id="Ellipse_746" data-name="Ellipse 746" cx="45" cy="45" r="45" transform="translate(1204 1488)" fill="#6d2ef1"/>
    <path id="cyber-security" d="M23.717,35.329H12.088a.589.589,0,0,1,0-1.178h11.7a.633.633,0,0,1,.589.589A.649.649,0,0,1,23.717,35.329ZM19.963,5.152A2.906,2.906,0,0,0,17.9,4.269a2.828,2.828,0,0,0-2.87,2.87V8.832h5.741V7.139A2.844,2.844,0,0,0,19.963,5.152ZM17.9,12.292a.81.81,0,1,0,.81.81A.817.817,0,0,0,17.9,12.292Zm0,0a.81.81,0,1,0,.81.81A.817.817,0,0,0,17.9,12.292Zm0,0a.81.81,0,1,0,.81.81A.817.817,0,0,0,17.9,12.292Zm0,0a.81.81,0,1,0,.81.81A.817.817,0,0,0,17.9,12.292Zm0,0a.81.81,0,1,0,.81.81A.817.817,0,0,0,17.9,12.292Zm0,0a.81.81,0,1,0,.81.81A.817.817,0,0,0,17.9,12.292Zm4.2-2.282H13.707a.317.317,0,0,0-.294.294v5.52a.317.317,0,0,0,.294.294h8.317a.317.317,0,0,0,.294-.294V10.3C22.392,10.157,22.245,10.01,22.1,10.01Zm-4.2,5a1.987,1.987,0,1,1,1.987-1.987A1.979,1.979,0,0,1,17.9,15.015Zm0-2.723a.81.81,0,1,0,.81.81A.817.817,0,0,0,17.9,12.292Zm0,0a.81.81,0,1,0,.81.81A.817.817,0,0,0,17.9,12.292Zm0,0a.81.81,0,1,0,.81.81A.817.817,0,0,0,17.9,12.292Zm0,0a.81.81,0,1,0,.81.81A.817.817,0,0,0,17.9,12.292Zm0,0a.81.81,0,1,0,.81.81A.817.817,0,0,0,17.9,12.292Zm0,0a.81.81,0,1,0,.81.81A.817.817,0,0,0,17.9,12.292Zm0,0a.81.81,0,1,0,.81.81A.817.817,0,0,0,17.9,12.292Zm0,0a.81.81,0,1,0,.81.81A.817.817,0,0,0,17.9,12.292Zm0,0a.81.81,0,1,0,.81.81A.817.817,0,0,0,17.9,12.292Zm0,0a.81.81,0,1,0,.81.81A.817.817,0,0,0,17.9,12.292Zm0,0a.81.81,0,1,0,.81.81A.817.817,0,0,0,17.9,12.292Zm0,0a.81.81,0,1,0,.81.81A.817.817,0,0,0,17.9,12.292Zm0,0a.81.81,0,1,0,.81.81A.817.817,0,0,0,17.9,12.292Zm4.2-2.282H13.707a.317.317,0,0,0-.294.294v5.52a.317.317,0,0,0,.294.294h8.317a.317.317,0,0,0,.294-.294V10.3C22.392,10.157,22.245,10.01,22.1,10.01Zm-4.2,5a1.987,1.987,0,1,1,1.987-1.987A1.979,1.979,0,0,1,17.9,15.015Zm0-2.723a.81.81,0,1,0,.81.81A.817.817,0,0,0,17.9,12.292Zm0,0a.81.81,0,1,0,.81.81A.817.817,0,0,0,17.9,12.292Zm0,0a.81.81,0,1,0,.81.81A.817.817,0,0,0,17.9,12.292Zm0,0a.81.81,0,1,0,.81.81A.817.817,0,0,0,17.9,12.292Zm0,0a.81.81,0,1,0,.81.81A.817.817,0,0,0,17.9,12.292Zm0,0a.81.81,0,1,0,.81.81A.817.817,0,0,0,17.9,12.292Zm2.061-7.139A2.906,2.906,0,0,0,17.9,4.269a2.828,2.828,0,0,0-2.87,2.87V8.832h5.741V7.139A2.844,2.844,0,0,0,19.963,5.152ZM17.9,12.292a.81.81,0,1,0,.81.81A.817.817,0,0,0,17.9,12.292Zm0,0a.81.81,0,1,0,.81.81A.817.817,0,0,0,17.9,12.292Zm2.061-7.139A2.906,2.906,0,0,0,17.9,4.269a2.828,2.828,0,0,0-2.87,2.87V8.832h5.741V7.139A2.844,2.844,0,0,0,19.963,5.152ZM17.9,12.292a.81.81,0,1,0,.81.81A.817.817,0,0,0,17.9,12.292Zm0,0a.81.81,0,1,0,.81.81A.817.817,0,0,0,17.9,12.292Zm0,0a.81.81,0,1,0,.81.81A.817.817,0,0,0,17.9,12.292Zm0,0a.81.81,0,1,0,.81.81A.817.817,0,0,0,17.9,12.292Zm0,0a.81.81,0,1,0,.81.81A.817.817,0,0,0,17.9,12.292Zm4.2-2.282H13.707a.317.317,0,0,0-.294.294v5.52a.317.317,0,0,0,.294.294h8.317a.317.317,0,0,0,.294-.294V10.3C22.392,10.157,22.245,10.01,22.1,10.01Zm-4.2,5a1.987,1.987,0,1,1,1.987-1.987A1.979,1.979,0,0,1,17.9,15.015Zm0-2.723a.81.81,0,1,0,.81.81A.817.817,0,0,0,17.9,12.292Zm0,0a.81.81,0,1,0,.81.81A.817.817,0,0,0,17.9,12.292Zm0,0a.81.81,0,1,0,.81.81A.817.817,0,0,0,17.9,12.292Zm0,0a.81.81,0,1,0,.81.81A.817.817,0,0,0,17.9,12.292Zm0,0a.81.81,0,1,0,.81.81A.817.817,0,0,0,17.9,12.292Zm0,0a.81.81,0,1,0,.81.81A.817.817,0,0,0,17.9,12.292Zm0,0a.81.81,0,1,0,.81.81A.817.817,0,0,0,17.9,12.292Zm0,0a.81.81,0,1,0,.81.81A.817.817,0,0,0,17.9,12.292Zm0,0a.81.81,0,1,0,.81.81A.817.817,0,0,0,17.9,12.292Zm4.2-2.282H13.707a.317.317,0,0,0-.294.294v5.52a.317.317,0,0,0,.294.294h8.317a.317.317,0,0,0,.294-.294V10.3C22.392,10.157,22.245,10.01,22.1,10.01Zm-4.2,5a1.987,1.987,0,1,1,1.987-1.987A1.979,1.979,0,0,1,17.9,15.015Zm0-2.723a.81.81,0,1,0,.81.81A.817.817,0,0,0,17.9,12.292Zm0,0a.81.81,0,1,0,.81.81A.817.817,0,0,0,17.9,12.292Zm0,0a.81.81,0,1,0,.81.81A.817.817,0,0,0,17.9,12.292Zm0,0a.81.81,0,1,0,.81.81A.817.817,0,0,0,17.9,12.292Zm2.061-7.139A2.906,2.906,0,0,0,17.9,4.269a2.828,2.828,0,0,0-2.87,2.87V8.832h5.741V7.139A2.844,2.844,0,0,0,19.963,5.152ZM17.9,12.292a.81.81,0,1,0,.81.81A.817.817,0,0,0,17.9,12.292Zm0,0a.81.81,0,1,0,.81.81A.817.817,0,0,0,17.9,12.292Zm2.061-7.139A2.906,2.906,0,0,0,17.9,4.269a2.828,2.828,0,0,0-2.87,2.87V8.832h5.741V7.139A2.844,2.844,0,0,0,19.963,5.152ZM17.9,12.292a.81.81,0,1,0,.81.81A.817.817,0,0,0,17.9,12.292Zm0,0a.81.81,0,1,0,.81.81A.817.817,0,0,0,17.9,12.292Zm0,0a.81.81,0,1,0,.81.81A.817.817,0,0,0,17.9,12.292Zm4.2-2.282H13.707a.317.317,0,0,0-.294.294v5.52a.317.317,0,0,0,.294.294h8.317a.317.317,0,0,0,.294-.294V10.3C22.392,10.157,22.245,10.01,22.1,10.01Zm-4.2,5a1.987,1.987,0,1,1,1.987-1.987A1.979,1.979,0,0,1,17.9,15.015Zm0-2.723a.81.81,0,1,0,.81.81A.817.817,0,0,0,17.9,12.292Zm0,0a.81.81,0,1,0,.81.81A.817.817,0,0,0,17.9,12.292Zm0,0a.81.81,0,1,0,.81.81A.817.817,0,0,0,17.9,12.292Zm0,0a.81.81,0,1,0,.81.81A.817.817,0,0,0,17.9,12.292Zm0,0a.81.81,0,1,0,.81.81A.817.817,0,0,0,17.9,12.292Zm4.2-2.282H13.707a.317.317,0,0,0-.294.294v5.52a.317.317,0,0,0,.294.294h8.317a.317.317,0,0,0,.294-.294V10.3C22.392,10.157,22.245,10.01,22.1,10.01Zm-4.2,5a1.987,1.987,0,1,1,1.987-1.987A1.979,1.979,0,0,1,17.9,15.015Zm0-2.723a.81.81,0,1,0,.81.81A.817.817,0,0,0,17.9,12.292Zm0,0a.81.81,0,1,0,.81.81A.817.817,0,0,0,17.9,12.292Zm2.061-7.139A2.906,2.906,0,0,0,17.9,4.269a2.828,2.828,0,0,0-2.87,2.87V8.832h5.741V7.139A2.844,2.844,0,0,0,19.963,5.152ZM17.9,12.292a.81.81,0,1,0,.81.81A.817.817,0,0,0,17.9,12.292Zm0,0a.81.81,0,1,0,.81.81A.817.817,0,0,0,17.9,12.292Zm2.061-7.139A2.906,2.906,0,0,0,17.9,4.269a2.828,2.828,0,0,0-2.87,2.87V8.832h5.741V7.139A2.844,2.844,0,0,0,19.963,5.152ZM17.9,12.292a.81.81,0,1,0,.81.81A.817.817,0,0,0,17.9,12.292Zm4.2-2.282H13.707a.317.317,0,0,0-.294.294v5.52a.317.317,0,0,0,.294.294h8.317a.317.317,0,0,0,.294-.294V10.3C22.392,10.157,22.245,10.01,22.1,10.01Zm-4.2,5a1.987,1.987,0,1,1,1.987-1.987A1.979,1.979,0,0,1,17.9,15.015Zm0-2.723a.81.81,0,1,0,.81.81A.817.817,0,0,0,17.9,12.292Zm4.2-2.282H13.707a.317.317,0,0,0-.294.294v5.52a.317.317,0,0,0,.294.294h8.317a.317.317,0,0,0,.294-.294V10.3C22.392,10.157,22.245,10.01,22.1,10.01Zm-4.2,5a1.987,1.987,0,1,1,1.987-1.987A1.979,1.979,0,0,1,17.9,15.015Zm2.87-7.875a3.163,3.163,0,0,0-.81-2.061,3.163,3.163,0,0,0-2.061-.81,2.828,2.828,0,0,0-2.87,2.87V8.832h5.741V7.139ZM17.9,12.292a.81.81,0,1,0,.81.81A.817.817,0,0,0,17.9,12.292ZM33.874,0H1.93A.992.992,0,0,0,.9.957V21.934H34.831V.957A.888.888,0,0,0,33.874,0ZM23.57,15.825A1.476,1.476,0,0,1,22.1,17.3H13.707a1.476,1.476,0,0,1-1.472-1.472V10.3a1.476,1.476,0,0,1,1.472-1.472h.147V7.139a4.048,4.048,0,1,1,8.1,0V8.832H22.1A1.476,1.476,0,0,1,23.57,10.3ZM22.1,10.01H13.707a.317.317,0,0,0-.294.294v5.52a.317.317,0,0,0,.294.294h8.317a.317.317,0,0,0,.294-.294V10.3C22.392,10.157,22.245,10.01,22.1,10.01Zm-4.2,5a1.987,1.987,0,1,1,1.987-1.987A1.979,1.979,0,0,1,17.9,15.015Zm2.87-7.875a3.163,3.163,0,0,0-.81-2.061,3.163,3.163,0,0,0-2.061-.81,2.828,2.828,0,0,0-2.87,2.87V8.832h5.741V7.139ZM17.9,12.292a.81.81,0,1,0,.81.81A.817.817,0,0,0,17.9,12.292Zm0,0a.81.81,0,1,0,.81.81A.817.817,0,0,0,17.9,12.292Zm2.061-7.139A2.906,2.906,0,0,0,17.9,4.269a2.828,2.828,0,0,0-2.87,2.87V8.832h5.741V7.139A2.844,2.844,0,0,0,19.963,5.152ZM17.9,12.292a.81.81,0,1,0,.81.81A.817.817,0,0,0,17.9,12.292Zm4.2-2.282H13.707a.317.317,0,0,0-.294.294v5.52a.317.317,0,0,0,.294.294h8.317a.317.317,0,0,0,.294-.294V10.3C22.392,10.157,22.245,10.01,22.1,10.01Zm-4.2,5a1.987,1.987,0,1,1,1.987-1.987A1.979,1.979,0,0,1,17.9,15.015Zm0-2.723a.81.81,0,1,0,.81.81A.817.817,0,0,0,17.9,12.292Zm0,0a.81.81,0,1,0,.81.81A.817.817,0,0,0,17.9,12.292Zm0,0a.81.81,0,1,0,.81.81A.817.817,0,0,0,17.9,12.292Zm4.2-2.282H13.707a.317.317,0,0,0-.294.294v5.52a.317.317,0,0,0,.294.294h8.317a.317.317,0,0,0,.294-.294V10.3C22.392,10.157,22.245,10.01,22.1,10.01Zm-4.2,5a1.987,1.987,0,1,1,1.987-1.987A1.979,1.979,0,0,1,17.9,15.015Zm0-2.723a.81.81,0,1,0,.81.81A.817.817,0,0,0,17.9,12.292Zm0,0a.81.81,0,1,0,.81.81A.817.817,0,0,0,17.9,12.292Zm2.061-7.139A2.906,2.906,0,0,0,17.9,4.269a2.828,2.828,0,0,0-2.87,2.87V8.832h5.741V7.139A2.844,2.844,0,0,0,19.963,5.152ZM17.9,12.292a.81.81,0,1,0,.81.81A.817.817,0,0,0,17.9,12.292Zm0,0a.81.81,0,1,0,.81.81A.817.817,0,0,0,17.9,12.292Zm2.061-7.139A2.906,2.906,0,0,0,17.9,4.269a2.828,2.828,0,0,0-2.87,2.87V8.832h5.741V7.139A2.844,2.844,0,0,0,19.963,5.152ZM17.9,12.292a.81.81,0,1,0,.81.81A.817.817,0,0,0,17.9,12.292Zm0,0a.81.81,0,1,0,.81.81A.817.817,0,0,0,17.9,12.292Zm0,0a.81.81,0,1,0,.81.81A.817.817,0,0,0,17.9,12.292Zm4.2-2.282H13.707a.317.317,0,0,0-.294.294v5.52a.317.317,0,0,0,.294.294h8.317a.317.317,0,0,0,.294-.294V10.3C22.392,10.157,22.245,10.01,22.1,10.01Zm-4.2,5a1.987,1.987,0,1,1,1.987-1.987A1.979,1.979,0,0,1,17.9,15.015Zm0-2.723a.81.81,0,1,0,.81.81A.817.817,0,0,0,17.9,12.292Zm0,0a.81.81,0,1,0,.81.81A.817.817,0,0,0,17.9,12.292Zm0,0a.81.81,0,1,0,.81.81A.817.817,0,0,0,17.9,12.292Zm0,0a.81.81,0,1,0,.81.81A.817.817,0,0,0,17.9,12.292Zm0,0a.81.81,0,1,0,.81.81A.817.817,0,0,0,17.9,12.292Zm0,0a.81.81,0,1,0,.81.81A.817.817,0,0,0,17.9,12.292Zm0,0a.81.81,0,1,0,.81.81A.817.817,0,0,0,17.9,12.292Zm4.2-2.282H13.707a.317.317,0,0,0-.294.294v5.52a.317.317,0,0,0,.294.294h8.317a.317.317,0,0,0,.294-.294V10.3C22.392,10.157,22.245,10.01,22.1,10.01Zm-4.2,5a1.987,1.987,0,1,1,1.987-1.987A1.979,1.979,0,0,1,17.9,15.015Zm0-2.723a.81.81,0,1,0,.81.81A.817.817,0,0,0,17.9,12.292Zm0,0a.81.81,0,1,0,.81.81A.817.817,0,0,0,17.9,12.292Zm0,0a.81.81,0,1,0,.81.81A.817.817,0,0,0,17.9,12.292Zm0,0a.81.81,0,1,0,.81.81A.817.817,0,0,0,17.9,12.292Zm2.061-7.139A2.906,2.906,0,0,0,17.9,4.269a2.828,2.828,0,0,0-2.87,2.87V8.832h5.741V7.139A2.844,2.844,0,0,0,19.963,5.152ZM17.9,12.292a.81.81,0,1,0,.81.81A.817.817,0,0,0,17.9,12.292Zm0,0a.81.81,0,1,0,.81.81A.817.817,0,0,0,17.9,12.292Zm2.061-7.139A2.906,2.906,0,0,0,17.9,4.269a2.828,2.828,0,0,0-2.87,2.87V8.832h5.741V7.139A2.844,2.844,0,0,0,19.963,5.152ZM17.9,12.292a.81.81,0,1,0,.81.81A.817.817,0,0,0,17.9,12.292Zm0,0a.81.81,0,1,0,.81.81A.817.817,0,0,0,17.9,12.292Zm0,0a.81.81,0,1,0,.81.81A.817.817,0,0,0,17.9,12.292Zm0,0a.81.81,0,1,0,.81.81A.817.817,0,0,0,17.9,12.292Zm0,0a.81.81,0,1,0,.81.81A.817.817,0,0,0,17.9,12.292Zm4.2-2.282H13.707a.317.317,0,0,0-.294.294v5.52a.317.317,0,0,0,.294.294h8.317a.317.317,0,0,0,.294-.294V10.3C22.392,10.157,22.245,10.01,22.1,10.01Zm-4.2,5a1.987,1.987,0,1,1,1.987-1.987A1.979,1.979,0,0,1,17.9,15.015Zm0-2.723a.81.81,0,1,0,.81.81A.817.817,0,0,0,17.9,12.292Zm0,0a.81.81,0,1,0,.81.81A.817.817,0,0,0,17.9,12.292Zm0,0a.81.81,0,1,0,.81.81A.817.817,0,0,0,17.9,12.292Zm0,0a.81.81,0,1,0,.81.81A.817.817,0,0,0,17.9,12.292Zm0,0a.81.81,0,1,0,.81.81A.817.817,0,0,0,17.9,12.292Zm0,0a.81.81,0,1,0,.81.81A.817.817,0,0,0,17.9,12.292Zm0,0a.81.81,0,1,0,.81.81A.817.817,0,0,0,17.9,12.292Zm0,0a.81.81,0,1,0,.81.81A.817.817,0,0,0,17.9,12.292Zm0,0a.81.81,0,1,0,.81.81A.817.817,0,0,0,17.9,12.292Zm0,0a.81.81,0,1,0,.81.81A.817.817,0,0,0,17.9,12.292Zm0,0a.81.81,0,1,0,.81.81A.817.817,0,0,0,17.9,12.292Zm4.2-2.282H13.707a.317.317,0,0,0-.294.294v5.52a.317.317,0,0,0,.294.294h8.317a.317.317,0,0,0,.294-.294V10.3C22.392,10.157,22.245,10.01,22.1,10.01Zm-4.2,5a1.987,1.987,0,1,1,1.987-1.987A1.979,1.979,0,0,1,17.9,15.015Zm0-2.723a.81.81,0,1,0,.81.81A.817.817,0,0,0,17.9,12.292Zm0,0a.81.81,0,1,0,.81.81A.817.817,0,0,0,17.9,12.292Zm0,0a.81.81,0,1,0,.81.81A.817.817,0,0,0,17.9,12.292Zm0,0a.81.81,0,1,0,.81.81A.817.817,0,0,0,17.9,12.292Zm0,0a.81.81,0,1,0,.81.81A.817.817,0,0,0,17.9,12.292Zm0,0a.81.81,0,1,0,.81.81A.817.817,0,0,0,17.9,12.292Zm2.061-7.139A2.906,2.906,0,0,0,17.9,4.269a2.828,2.828,0,0,0-2.87,2.87V8.832h5.741V7.139A2.844,2.844,0,0,0,19.963,5.152ZM17.9,12.292a.81.81,0,1,0,.81.81A.817.817,0,0,0,17.9,12.292Zm3.165,17.665h-6.33l-.515,4.2h7.36Zm10.3-4.563a.589.589,0,0,0,0,1.178.589.589,0,1,0,0-1.178Zm0,0a.589.589,0,0,0,0,1.178.589.589,0,1,0,0-1.178Zm0,0a.589.589,0,0,0,0,1.178.589.589,0,1,0,0-1.178Zm0,0a.589.589,0,0,0,0,1.178.589.589,0,1,0,0-1.178Zm0,0a.589.589,0,0,0,0,1.178.589.589,0,1,0,0-1.178Zm0,0a.589.589,0,0,0,0,1.178.589.589,0,1,0,0-1.178ZM.9,23.111v4.711a.974.974,0,0,0,.957.957H33.874a.974.974,0,0,0,.957-.957V23.111ZM4.212,26.57a.589.589,0,1,1,0-1.178.633.633,0,0,1,.589.589A.581.581,0,0,1,4.212,26.57Zm1.546,0a.589.589,0,1,1,0-1.178.633.633,0,0,1,.589.589A.581.581,0,0,1,5.758,26.57Zm1.619,0a.589.589,0,1,1,0-1.178.589.589,0,1,1,0,1.178Zm1.546,0a.589.589,0,1,1,0-1.178.589.589,0,1,1,0,1.178Zm1.546,0a.589.589,0,1,1,0-1.178.589.589,0,1,1,0,1.178Zm20.9,1.178a1.766,1.766,0,1,1,1.766-1.766A1.744,1.744,0,0,1,31.371,27.748Zm0-2.355a.589.589,0,0,0,0,1.178.589.589,0,1,0,0-1.178Zm0,0a.589.589,0,0,0,0,1.178.589.589,0,1,0,0-1.178Zm0,0a.589.589,0,0,0,0,1.178.589.589,0,1,0,0-1.178Zm0,0a.589.589,0,0,0,0,1.178.589.589,0,1,0,0-1.178Zm0,0a.589.589,0,0,0,0,1.178.589.589,0,1,0,0-1.178Z" transform="translate(1231.1 1515)" fill="#fff"/>
  </g>
</svg>
